<?xml version="1.0" encoding="utf-8"?>
<!-- Generator: Adobe Illustrator 19.1.0, SVG Export Plug-In . SVG Version: 6.00 Build 0)  -->
<!DOCTYPE svg PUBLIC "-//W3C//DTD SVG 1.1//EN" "http://www.w3.org/Graphics/SVG/1.1/DTD/svg11.dtd">
<svg version="1.1" id="Layer_1" xmlns="http://www.w3.org/2000/svg" xmlns:xlink="http://www.w3.org/1999/xlink" x="0px" y="0px"
	 viewBox="0 0 121 3" style="enable-background:new 0 0 121 3;" xml:space="preserve">
<style type="text/css">
	.st0{fill:#D5D2CC;}
</style>
<path class="st0" d="M115.8,1c-1.3,0.5-2.4,1-4.9,1c-2.4,0-3.6-0.5-4.9-1c-1.3-0.5-2.6-1-5.2-1c-2.6,0-3.9,0.5-5.2,1
	c-1.3,0.5-2.4,1-4.9,1c-2.4,0-3.6-0.5-4.9-1c-1.3-0.5-2.6-1-5.2-1c-2.6,0-3.9,0.5-5.2,1c-1.3,0.5-2.4,1-4.9,1c-2.4,0-3.6-0.5-4.9-1
	c-1.3-0.5-2.6-1-5.2-1c-2.6,0-3.9,0.5-5.2,1c-1.3,0.5-2.4,1-4.9,1c-2.4,0-3.6-0.5-4.9-1c-1.3-0.5-2.6-1-5.2-1c-2.6,0-3.9,0.5-5.2,1
	c-1.3,0.5-2.4,1-4.9,1c-2.4,0-3.6-0.5-4.9-1c-1.3-0.5-2.6-1-5.2-1c-2.6,0-3.9,0.5-5.2,1c-1.3,0.5-2.4,1-4.9,1C7.7,2,6.5,1.5,5.2,1
	C3.9,0.5,2.6,0,0,0v1c2.4,0,3.6,0.5,4.9,1c1.3,0.5,2.6,1,5.2,1c2.6,0,3.9-0.5,5.2-1c1.3-0.5,2.4-1,4.9-1c2.4,0,3.6,0.5,4.9,1
	c1.3,0.5,2.6,1,5.2,1c2.6,0,3.9-0.5,5.2-1c1.3-0.5,2.4-1,4.9-1c2.4,0,3.6,0.5,4.9,1c1.3,0.5,2.6,1,5.2,1c2.6,0,3.9-0.5,5.2-1
	c1.3-0.5,2.4-1,4.9-1c2.4,0,3.6,0.5,4.9,1c1.3,0.5,2.6,1,5.2,1c2.6,0,3.9-0.5,5.2-1c1.3-0.5,2.4-1,4.9-1c2.4,0,3.6,0.5,4.9,1
	c1.3,0.5,2.6,1,5.2,1c2.6,0,3.9-0.5,5.2-1c1.3-0.5,2.4-1,4.9-1c2.4,0,3.6,0.5,4.9,1c1.3,0.5,2.6,1,5.2,1c2.6,0,3.9-0.5,5.2-1
	c1.3-0.5,2.4-1,4.9-1V0C118.4,0,117.1,0.5,115.8,1z"/>
</svg>
