<svg xmlns="http://www.w3.org/2000/svg" xmlns:xlink="http://www.w3.org/1999/xlink" preserveAspectRatio="xMidYMid" width="168" height="65" viewBox="0 0 168 65">
  <defs>
    <style>
      .cls-1 {
        fill: #77c149;
        fill-rule: evenodd;
      }
    </style>
  </defs>
  <path d="M167.765,24.056 C167.609,24.409 167.398,24.716 167.133,24.976 C166.868,25.236 166.558,25.438 166.204,25.583 C165.850,25.727 165.473,25.799 165.073,25.799 C164.672,25.799 164.294,25.727 163.937,25.583 C163.581,25.438 163.269,25.236 163.001,24.976 C162.733,24.716 162.521,24.409 162.365,24.056 C162.209,23.704 162.131,23.318 162.131,22.901 C162.131,22.494 162.209,22.115 162.365,21.765 C162.521,21.414 162.733,21.111 163.001,20.853 C163.269,20.595 163.581,20.393 163.937,20.246 C164.294,20.099 164.672,20.026 165.073,20.026 C165.473,20.026 165.850,20.099 166.204,20.246 C166.558,20.393 166.868,20.595 167.133,20.853 C167.398,21.111 167.609,21.414 167.765,21.765 C167.921,22.115 167.999,22.494 167.999,22.901 C167.999,23.318 167.921,23.704 167.765,24.056 ZM167.285,21.935 C167.163,21.636 166.994,21.377 166.778,21.158 C166.562,20.939 166.308,20.767 166.017,20.641 C165.726,20.514 165.411,20.451 165.073,20.451 C164.729,20.451 164.410,20.514 164.117,20.641 C163.823,20.767 163.568,20.939 163.352,21.158 C163.136,21.377 162.967,21.636 162.845,21.935 C162.723,22.234 162.661,22.555 162.661,22.901 C162.661,23.256 162.723,23.585 162.845,23.886 C162.967,24.187 163.136,24.449 163.352,24.671 C163.568,24.892 163.823,25.066 164.117,25.192 C164.410,25.318 164.729,25.381 165.073,25.381 C165.411,25.381 165.726,25.318 166.017,25.192 C166.308,25.066 166.562,24.892 166.778,24.671 C166.994,24.449 167.163,24.187 167.285,23.886 C167.407,23.585 167.469,23.256 167.469,22.901 C167.469,22.555 167.407,22.234 167.285,21.935 ZM165.955,24.601 L165.026,23.148 L164.464,23.148 L164.464,24.601 L163.933,24.601 L163.933,21.224 L165.252,21.224 C165.658,21.224 165.958,21.304 166.154,21.464 C166.349,21.623 166.446,21.865 166.446,22.190 C166.446,22.494 166.361,22.716 166.189,22.859 C166.017,23.000 165.804,23.084 165.549,23.110 L166.524,24.601 L165.955,24.601 ZM165.642,22.646 C165.726,22.610 165.792,22.554 165.842,22.479 C165.891,22.404 165.916,22.301 165.916,22.167 C165.916,22.053 165.893,21.963 165.849,21.897 C165.805,21.829 165.748,21.778 165.678,21.742 C165.607,21.705 165.527,21.681 165.435,21.668 C165.344,21.655 165.255,21.649 165.166,21.649 L164.464,21.649 L164.464,22.723 L165.018,22.723 C165.138,22.723 165.251,22.719 165.358,22.711 C165.464,22.704 165.559,22.682 165.642,22.646 ZM156.717,41.228 C154.996,50.187 145.565,49.755 141.302,48.954 C137.039,48.151 127.845,45.073 129.607,35.914 C131.663,25.200 145.752,27.921 148.767,28.490 C151.718,29.044 153.953,29.802 153.953,29.802 C155.123,23.697 151.825,21.057 145.926,19.946 C141.203,19.057 137.382,19.479 136.048,19.699 L136.924,15.154 C139.511,14.766 143.018,14.552 147.085,15.319 C156.266,17.048 160.286,22.651 158.590,31.484 L156.717,41.228 ZM147.430,32.611 C143.497,31.870 135.472,30.831 134.325,36.805 C133.340,41.934 138.071,43.836 142.138,44.601 C146.202,45.369 151.050,45.272 151.995,40.336 C152.955,35.335 153.195,34.103 153.195,34.103 C153.195,34.103 151.104,33.306 147.430,32.611 ZM129.325,17.337 L120.769,16.357 L118.441,36.323 C118.055,39.603 119.171,40.996 122.685,41.402 C124.277,41.581 125.509,41.388 126.558,41.043 L126.035,45.509 C124.723,45.824 123.225,45.987 121.568,45.794 C118.849,45.487 112.713,43.917 113.695,35.512 L115.996,15.808 L110.225,15.147 L110.731,10.816 L116.502,11.473 L117.581,2.215 L122.357,2.759 L121.275,12.020 L129.831,13.000 L129.325,17.337 ZM107.643,33.582 C107.202,42.693 97.803,43.568 93.468,43.363 C89.136,43.153 79.598,41.379 80.050,32.067 C80.579,21.175 94.911,21.923 97.978,22.070 C100.978,22.212 103.294,22.651 103.294,22.651 C103.596,16.446 99.960,14.287 93.960,14.000 C89.160,13.773 85.436,14.721 84.147,15.123 L84.373,10.500 C86.882,9.759 90.322,9.062 94.457,9.260 C103.791,9.705 108.558,14.698 108.124,23.677 L107.643,33.582 ZM97.236,26.335 C93.237,26.145 85.145,26.222 84.850,32.297 C84.598,37.512 89.550,38.741 93.682,38.940 C97.817,39.136 102.598,38.370 102.844,33.353 C103.090,28.270 103.151,27.014 103.151,27.014 C103.151,27.014 100.972,26.512 97.236,26.335 ZM78.578,64.338 L77.991,62.940 C77.505,61.801 77.163,61.666 76.676,61.630 C76.180,61.594 75.614,61.528 75.349,61.470 L75.349,64.885 L74.957,64.885 C74.508,64.885 74.290,64.657 74.290,64.222 L74.290,57.416 C74.749,57.233 75.650,57.064 76.273,57.064 L76.977,57.064 C78.557,57.064 79.538,57.849 79.538,59.186 C79.538,60.418 78.706,61.057 77.704,61.195 C78.499,61.446 78.741,62.101 78.924,62.522 L79.640,64.189 C79.734,64.395 79.906,64.691 80.008,64.807 L80.008,64.860 C80.008,64.860 79.595,64.919 79.446,64.919 C79.007,64.919 78.741,64.725 78.578,64.338 ZM78.475,59.345 C78.475,58.283 77.750,57.976 76.895,57.976 L76.310,57.976 C76.030,57.976 75.695,58.022 75.349,58.102 L75.349,60.590 C75.857,60.669 76.320,60.704 76.767,60.704 C77.597,60.704 78.475,60.338 78.475,59.345 ZM71.792,20.884 C71.675,17.779 70.586,13.582 62.578,13.872 C59.175,13.998 56.130,14.768 53.885,15.512 L54.904,43.000 L50.099,43.176 L48.975,12.845 C50.550,11.992 55.996,9.349 62.936,9.097 C71.344,8.791 76.312,13.043 76.595,20.708 L77.390,42.183 L72.587,42.359 L71.792,20.884 ZM54.450,7.063 L54.442,7.061 C54.442,7.061 53.621,7.669 52.900,6.711 C52.182,5.756 54.109,3.219 54.109,3.219 C59.557,-4.936 64.322,8.349 69.832,0.187 C69.832,0.187 70.654,-0.420 71.373,0.537 C72.095,1.492 70.160,3.901 70.160,3.901 C64.655,12.125 59.889,-1.156 54.450,7.063 ZM37.154,11.480 L41.938,11.013 L45.205,43.848 L40.420,44.313 L37.154,11.480 ZM38.826,7.210 C37.027,7.210 35.570,5.768 35.570,3.987 C35.570,2.205 37.027,0.761 38.826,0.761 C40.623,0.761 42.080,2.205 42.080,3.987 C42.080,5.768 40.623,7.210 38.826,7.210 ZM20.033,29.968 L9.160,31.720 L11.895,48.360 L7.150,49.125 L-0.000,5.603 L15.615,3.089 C25.430,1.506 31.617,5.397 33.041,14.074 C34.467,22.753 29.849,28.388 20.033,29.968 ZM28.299,14.839 C27.611,10.665 25.577,6.103 15.762,7.685 L5.483,9.342 L8.421,27.221 L18.698,25.564 C28.513,23.982 28.986,19.018 28.299,14.839 ZM55.993,57.119 L59.512,57.119 L59.512,57.564 C59.512,57.782 59.338,58.090 58.876,58.090 L55.926,58.090 L55.926,60.328 L58.980,60.328 L58.980,60.669 C58.980,61.035 58.714,61.263 58.311,61.263 L55.926,61.263 L55.926,64.885 L55.521,64.885 C55.070,64.885 54.853,64.702 54.853,64.257 L54.853,58.077 C54.853,57.381 55.130,57.119 55.993,57.119 ZM66.127,57.119 C66.565,57.119 66.853,57.403 67.188,57.989 C67.879,59.186 69.114,62.374 69.506,64.885 L69.126,64.885 C68.676,64.885 68.466,64.691 68.399,64.338 C68.294,63.799 68.121,63.205 68.031,62.830 L64.362,62.830 C64.213,63.401 64.006,64.244 63.890,64.885 L63.489,64.885 C63.151,64.885 63.014,64.735 63.014,64.382 C63.014,63.309 64.573,58.581 65.783,57.119 L66.127,57.119 ZM67.765,61.996 C67.350,60.535 66.866,59.276 66.186,58.053 C65.448,59.357 65.011,60.554 64.605,61.996 L67.765,61.996 ZM85.889,57.119 C86.902,57.119 87.340,58.022 87.628,58.855 L88.666,61.903 C88.840,62.417 89.047,63.057 89.127,63.457 C89.257,62.999 89.453,62.405 89.646,61.881 L90.661,59.084 C90.972,58.227 91.447,57.393 91.666,57.119 L91.940,57.119 C92.645,57.119 92.945,57.631 93.048,58.592 C93.269,60.554 93.430,63.071 93.475,64.885 L93.083,64.885 C92.610,64.885 92.390,64.647 92.390,64.052 C92.390,62.830 92.207,59.724 91.965,58.328 C91.782,58.659 91.571,59.208 91.273,60.054 L90.050,63.537 C89.889,64.006 89.658,64.552 89.485,64.885 L89.242,64.885 C88.931,64.885 88.551,64.647 87.953,62.839 L86.971,59.905 C86.797,59.368 86.522,58.741 86.303,58.342 C85.980,60.476 85.829,63.229 85.806,64.885 L85.494,64.885 C85.115,64.885 84.768,64.601 84.768,64.052 C84.768,61.903 85.197,58.775 85.494,57.119 L85.889,57.119 ZM100.978,61.287 C99.446,60.956 98.696,60.453 98.696,59.345 C98.696,58.022 99.826,57.005 101.672,57.005 C103.124,57.005 103.918,57.733 103.918,58.445 L103.918,58.912 L103.863,58.912 C103.366,58.294 102.724,57.989 101.614,57.989 C100.459,57.989 99.804,58.432 99.804,59.186 C99.804,59.917 100.149,60.158 101.706,60.512 C102.814,60.763 104.115,61.368 104.115,62.634 C104.115,63.926 103.171,65.000 101.166,65.000 C100.045,65.000 98.811,64.338 98.811,63.457 L98.811,62.955 L98.868,62.955 C99.342,63.581 100.240,64.016 101.246,64.016 C102.593,64.016 103.019,63.528 103.019,62.748 C103.019,61.937 102.593,61.641 100.978,61.287 Z" class="cls-1"/>
</svg>
