<?xml version="1.0" encoding="utf-8"?>
<!-- Generator: Adobe Illustrator 19.1.0, SVG Export Plug-In . SVG Version: 6.00 Build 0)  -->
<!DOCTYPE svg PUBLIC "-//W3C//DTD SVG 1.1//EN" "http://www.w3.org/Graphics/SVG/1.1/DTD/svg11.dtd">
<svg version="1.1" id="Layer_1" xmlns="http://www.w3.org/2000/svg" xmlns:xlink="http://www.w3.org/1999/xlink" x="0px" y="0px"
	 viewBox="0 0 36.5 6.4" style="enable-background:new 0 0 36.5 6.4;" xml:space="preserve">
<style type="text/css">
	.st0{fill:#FFFFFF;}
</style>
<path class="st0" d="M8.7,0.6c0,0.1,0,0.2,0,0.3C8.5,0.6,8.1,0.5,7.5,0.6c-0.6,0.1-1.2,0.1-1.7,0C5.9,0.7,6,0.7,6.1,0.7
	c0.1,0,0.2,0.1,0.2,0.2c0,0.1,0,0.2,0,0.2c0,0,0,0.1,0,0.2c0,0,0,0.1-0.1,0.2c-0.1,0.1-0.1,0.3,0,0.7c0.1,0,0.1-0.1,0.1-0.1
	c0,0,0,0,0.1,0v0.2C6.3,2.4,6.2,2.5,6.1,2.6C6,2.7,5.9,2.8,5.9,2.9c-0.1-0.1,0-0.3,0-0.4c0.1-0.2,0-0.2-0.2-0.2H5.5
	c0-0.1,0-0.3,0-0.7s0-0.6-0.1-0.9c0.1,0,0.1,0,0.1,0c0,0,0,0-0.2,0c-0.2,0-0.2,0-0.1-0.1c0.1,0,0-0.1-0.2-0.1H4.1
	c0.1,0.2,0,0.3-0.1,0.5C3.9,1.2,3.7,1.3,3.6,1.4c-0.1-0.1,0-0.1,0.1-0.1c0.1,0,0.2,0,0.2-0.1c0-0.1,0-0.2,0-0.3c0-0.1,0-0.2-0.1-0.3
	H3C2.7,0.7,2.5,0.8,2.5,0.9C2.4,0.9,2.2,1,2.1,1.2C2,1.1,1.8,1.1,1.7,1.1c0.2,0.1,0.2,0.2,0.1,0.3c-0.1-0.1-0.3-0.1-0.5,0
	c0,0.1,0,0.2,0.1,0.2c0.1,0,0,0.1-0.1,0.2c-0.1,0-0.1,0-0.2,0C1,1.8,0.9,1.7,0.8,1.7c0-0.1-0.1-0.1-0.2-0.1H0.4
	C0.4,1.7,0.3,1.7,0.3,1.8c0,0-0.1,0.1-0.2,0.1v1c0,0.1,0,0.1,0.1,0.1c0.1,0,0.1,0,0.1,0.1c0,0.1,0,0.3-0.1,0.5
	C0.2,3.9,0.1,4.1,0,4.2l0.2-0.1c0.2,0.3,0.6,0.6,1,0.7C1.6,5,2,5.2,2.5,5.4C2.4,5.3,2.3,5.3,2.2,5.3c-0.1,0-0.1,0-0.2-0.1
	C2.2,5.1,2.3,5,2.4,4.9c0.1,0,0.2-0.1,0.3-0.3c0.1,0.1,0.1,0.1,0.2,0.2C2.9,5,2.9,5.1,2.9,5.2c0,0.1-0.1,0.2-0.2,0.1
	c-0.1-0.1-0.2-0.1-0.2,0v0.3C2.8,5.7,3,5.7,3.1,5.8c0.1,0,0.2,0.1,0.3,0.1C3.4,5.8,3.4,5.8,3.4,5.8c0,0,0.1,0,0.3,0
	c0.2,0,0.3,0,0.3,0v0c0.1,0,0.2-0.1,0.3-0.3c0.1-0.2,0.1-0.4,0.3-0.6C4.4,5,4.5,5,4.5,5c0,0,0,0.1,0,0.2c0,0.2,0,0.3-0.1,0.4
	C4.4,5.8,4.2,5.9,4,6.1c0.2,0,0.5,0,0.7,0s0.8,0,1.7,0.1c0-0.2,0.1-0.4,0.4-0.4V6L6.5,6.2c0.2,0,0.6,0,1,0c0.5,0,0.9,0,1.5,0.1
	c0.5,0,1,0.1,1.4,0.1c0.4,0,0.7,0,0.7,0c0.2,0,0.4,0,0.4,0c0,0,0.1-0.1,0.1-0.1c0.1,0.1,0.3,0.2,0.5,0.2c0.1-0.1,0.2-0.1,0.2-0.2
	c0-0.1,0-0.2,0.1-0.2c0.2,0.1,0.3,0.1,0.2,0.2c-0.1,0.1-0.1,0.2-0.1,0.2H14c0.1-0.1,0.1-0.1,0-0.1c0,0,0-0.1,0-0.1
	c0.1,0.1,0.4,0.1,0.9,0.1c0.5,0,1,0,1.6,0c0.6,0,1.1,0,1.6-0.1c0.5,0,0.8-0.1,0.9-0.2c0.1-0.1,0.1-0.2,0-0.2c0,0,0-0.1,0.1-0.2
	c0.1,0.1,0.2,0.1,0.2,0.2c0,0.1,0.1,0.2,0.2,0.3c0.1,0,0.6,0,1.5,0c0.9,0,1.9,0,3.1,0c1.2,0,2.4,0,3.7,0c1.3,0,2.4,0,3.3,0
	c0-0.1,0-0.2,0.1-0.2C31.6,6,32.2,6,32.9,6s1.4,0,1.9,0c0.6,0,1-0.2,1.2-0.7c0.2-0.4,0.3-1,0.4-1.5c0.1-0.6,0-1.2,0-1.7
	c-0.1-0.6-0.1-0.9-0.1-1.2c0-0.6-0.1-0.9-0.3-0.9C35.8,0,35.4,0,35,0c-0.1,0-0.3,0-0.6,0c-0.4,0-0.8,0-1.2,0.1
	c-0.4,0-0.8,0.1-1.1,0.1c-0.3,0-0.5,0.1-0.6,0.1c0,0,0,0,0,0c0,0,0,0,0,0v0c0,0-0.1-0.1-0.3-0.1C30.9,0,30.8,0,30.6,0
	c-0.3,0-0.5,0-0.5,0c-0.1,0-0.1,0-0.2,0c0,0.2,0,0.3-0.1,0.3c-0.1-0.1-0.1-0.2-0.1-0.3c-0.4,0-1.1,0-2.2,0c-1,0-2.1,0-3.3,0
	c-1.1,0-2.2,0-3.2,0c-1,0-1.6,0-1.9,0c0.1,0.1,0.1,0.2,0,0.4C19.2,0.8,19.1,1,18.9,1V0.9c0,0,0,0-0.1,0C18.8,0.9,18.8,1,18.8,1
	c0,0,0,0.1-0.1,0.1V0.3l0.2,0.2C18.9,0.5,19,0.4,19,0.4c0.1,0,0.1-0.1,0-0.2l-4.5,0.4c0,0.1,0,0.1-0.1,0.1c-0.1,0-0.1,0.1-0.2,0.1
	c-0.1-0.1-0.1-0.1-0.1-0.1c0,0-0.1-0.1-0.2-0.1c0,0.1,0,0.1,0.1,0.2c0.1,0,0,0.1-0.2,0.1c-0.2,0-0.4,0-0.6-0.1
	c-0.2,0-0.4-0.1-0.7-0.2c-0.2,0.3-0.4,0.4-0.7,0.3c-0.3,0-0.4,0-0.3,0c0.1,0.1,0.1,0.1,0.3,0.2c0.1,0.1,0.2,0.2,0.3,0.3l-0.4-0.2
	c0,0.1,0,0.1,0,0.1c0,0,0,0-0.2,0c-0.2,0-0.3,0-0.3-0.1c0-0.1,0-0.1,0-0.2c0-0.1,0-0.2-0.1-0.3c-0.1-0.1-0.2-0.2-0.5-0.2
	c-0.1,0.1-0.1,0.1-0.1,0.1c0,0,0,0.1-0.1,0.1c-0.1-0.1-0.1-0.1,0-0.2c0.1,0,0-0.1-0.2-0.1c-0.2,0-0.4,0-0.5,0c-0.1,0-0.2,0-0.3,0
	c0,0.1,0,0.1,0.1,0.1c0.1,0,0.1,0.1,0.1,0.2c0,0.1,0,0.1-0.1,0.1c-0.1,0-0.2,0-0.3,0C9.3,1.1,9.2,1.1,9.2,1c0,0,0-0.1,0-0.2
	c0,0,0,0,0,0c0,0,0,0,0,0v0v0l0.1,0.1C9.2,0.5,9,0.4,8.8,0.4l0,0l0,0C8.8,0.5,8.8,0.5,8.7,0.6z M19.8,5.8c-0.1,0-0.1-0.1,0-0.2
	c0-0.1,0.1-0.1,0.2-0.1C20,5.6,20,5.7,19.8,5.8L19.8,5.8z M20.5,5.7c0-0.2,0.1-0.3,0.4-0.2C20.9,5.6,20.8,5.6,20.5,5.7L20.5,5.7z
	 M13.2,6.1c-0.1,0.1-0.2,0.1-0.3,0.1C12.9,6.1,13,6,13,6c0.1-0.1,0.2-0.1,0.3-0.1C13.4,6,13.3,6,13.2,6.1z M5.9,6H5.3
	c0.1,0,0.3-0.1,0.4-0.1C5.9,5.9,6,5.9,5.9,6L5.9,6z M22.1,5.5c-0.1,0.1-0.1,0.2-0.2,0.3c0-0.2-0.1-0.3-0.2-0.4l0.1,0
	c0.1,0,0.2,0,0.3,0C22.1,5.4,22.1,5.4,22.1,5.5z M5,6C4.9,5.9,5,5.7,5.3,5.6C5.3,5.8,5.2,6,5,6L5,6z M19.8,5.6
	c-0.1-0.1-0.1-0.2,0-0.3c0-0.1,0.1-0.2,0.2-0.1C20.1,5.3,20,5.4,19.8,5.6L19.8,5.6z M33.2,5l0.3,0.1c-0.1,0-0.2,0.1-0.3,0.1
	c-0.1,0-0.2,0-0.3,0L33.2,5z M12.6,5.8L12.6,5.8c-0.1-0.1-0.2-0.1-0.2-0.1c0,0,0-0.1-0.1-0.1c0.1,0,0.2-0.1,0.3-0.1
	c0.1,0,0.2,0,0.3,0C12.7,5.6,12.6,5.7,12.6,5.8L12.6,5.8z M8.1,5.7H7.9c-0.1,0-0.2,0-0.2-0.1c0,0.1,0.1,0.2,0.2,0.1
	C8,5.6,8.1,5.6,8.1,5.7L8.1,5.7z M11.3,5.5c0.1,0.1,0.1,0.1,0.1,0.1c-0.1,0-0.2,0-0.3-0.1C11.1,5.4,11.1,5.4,11.3,5.5
	C11.2,5.4,11.2,5.4,11.3,5.5L11.3,5.5z M10.7,5.3L10.7,5.3l0.3,0.2l-0.1,0c-0.1,0-0.2,0-0.3,0C10.6,5.5,10.7,5.4,10.7,5.3L10.7,5.3
	L10.7,5.3z M6.6,5.5c0,0,0,0.1,0.1,0.1c-0.1,0-0.2,0-0.3,0.1c-0.1-0.1-0.1-0.1,0-0.2c0.1-0.1,0.1-0.1,0.2-0.2
	C6.6,5.4,6.6,5.4,6.6,5.5z M3.1,5.3c0.4-0.1,0.5,0,0.4,0.2L3.1,5.3z M19.4,5.3c-0.1-0.2-0.1-0.3,0.2-0.5C19.6,4.9,19.5,5.1,19.4,5.3
	L19.4,5.3z M14,5.1v0.7c-0.1,0-0.1,0-0.1,0c0,0,0-0.1-0.1-0.1c-0.1,0-0.1,0-0.1,0c0,0,0,0.1-0.1,0.1C13.6,5.7,13.7,5.4,14,5.1
	L14,5.1z M3.7,5.2c-0.1,0-0.2,0-0.4,0C3.2,5.1,3.1,5.1,3.1,5C3.5,5,3.7,5.1,3.7,5.2L3.7,5.2z M32.8,4.6c-0.1,0-0.1,0,0-0.1L32.8,4.6
	c0.1,0,0.1,0,0.1,0.1C32.9,4.5,32.9,4.5,32.8,4.6z M12.7,5.1h0.2C12.9,5.1,13,5,13,5C13.2,5.1,13.1,5.2,12.7,5.1L12.7,5.1z M5.3,4.8
	c0.2,0.2,0.2,0.3,0,0.4V4.8z M32.8,4.4L32.8,4.4C33,4.4,33,4.3,33,4.2C33.1,4.4,33,4.4,32.8,4.4L32.8,4.4z M8.7,4.5v0.3
	C8.6,4.8,8.5,4.7,8.5,4.6C8.5,4.5,8.6,4.5,8.7,4.5L8.7,4.5z M12.5,4.9c0-0.1,0-0.1,0-0.2c0-0.1,0-0.2,0.1-0.2
	C12.7,4.7,12.7,4.8,12.5,4.9L12.5,4.9z M19.8,4.3c-0.1-0.3,0.1-0.4,0.3-0.4C20.2,4,20,4.2,19.8,4.3L19.8,4.3z M31.3,3.8
	C31.2,3.9,31.1,4,30.8,4c0-0.1,0.1-0.1,0.2-0.2c0.1,0,0.2-0.1,0.3-0.2C31.4,3.7,31.4,3.7,31.3,3.8z M32.1,3.6v0.2
	c0.1-0.1,0.1-0.2,0-0.3V3.6z M0.7,4c0,0,0,0.1-0.1,0.1C0.6,4.1,0.6,4,0.7,4c0-0.2,0.1-0.2,0.2-0.1C0.7,3.9,0.7,4,0.7,4z M24.6,3.7V4
	c-0.1-0.1-0.2-0.1-0.2-0.2C24.5,3.7,24.5,3.7,24.6,3.7L24.6,3.7z M26.4,3.4L26.4,3.4c0.2,0.1,0.2,0.2,0.2,0.2c0,0,0-0.1-0.1-0.1
	C26.4,3.5,26.4,3.5,26.4,3.4L26.4,3.4z M25.2,3.7c-0.1-0.1-0.1-0.1-0.3-0.1c0.3,0,0.5,0.1,0.5,0.2C25.3,3.8,25.2,3.7,25.2,3.7z
	 M24.5,3.5L24.5,3.5c-0.1,0-0.2,0-0.2-0.1L24.5,3.5z M0.6,3.5c-0.1,0-0.2,0-0.3,0C0.4,3.6,0.5,3.6,0.6,3.5c0.2,0.1,0.3,0,0.3,0
	C0.7,3.4,0.6,3.4,0.6,3.5z M25.9,3c-0.1,0.1-0.2,0.1-0.3,0.1c0.1-0.1,0.2-0.1,0.2-0.2c0,0,0.1-0.1,0.2-0.2C26,2.8,26,2.9,25.9,3z
	 M34.9,2.3c-0.1,0-0.2,0-0.3,0c0,0,0,0.1,0.1,0.1C34.8,2.4,34.8,2.3,34.9,2.3c-0.1-0.1,0-0.2,0.1-0.2C35.1,2.2,35,2.3,34.9,2.3z
	 M19.6,2.1c0.1,0.1,0,0.2-0.1,0.3c-0.1-0.1-0.2-0.1-0.1-0.2c0-0.1,0-0.2,0-0.3C19.5,1.9,19.6,2,19.6,2.1z M30.1,1.8
	c0-0.1,0.1-0.1,0.2-0.1c0.1,0,0.2,0,0.3-0.1C30.5,1.7,30.3,1.8,30.1,1.8L30.1,1.8z M13.3,2.4c0-0.1,0.1-0.2,0.2-0.3
	C13.6,2.2,13.6,2.3,13.3,2.4L13.3,2.4z M11.4,2v0.3c-0.1-0.1-0.2-0.1-0.2-0.2C11.2,2.1,11.3,2,11.4,2L11.4,2z M9.6,2.2v0.2V2.1V2.2z
	 M18.9,2.2V1.6c0.1,0,0.1,0,0.1,0c0,0.1,0,0.1,0,0.2C19,1.9,19,2,18.9,2.2L18.9,2.2z M11.6,2.2c-0.1-0.1-0.1-0.1,0-0.2
	c0.1-0.1,0.1-0.1,0.3-0.1C11.9,2,11.8,2.1,11.6,2.2L11.6,2.2z M1.5,1.9v0.3C1.2,2.1,1.1,2.1,1.2,2C1.3,1.9,1.3,1.9,1.5,1.9L1.5,1.9z
	 M33.7,1.2L33.7,1.2c0,0.1-0.1,0.2-0.3,0.2C33.4,1.3,33.5,1.2,33.7,1.2L33.7,1.2z M0.6,1.9c0,0.1-0.1,0.1-0.2,0.2
	c0-0.1,0-0.1,0.1-0.2c0.1-0.1,0.1-0.1,0.1-0.1C0.7,1.8,0.7,1.8,0.6,1.9z M3.7,2c0,0.1,0,0.2-0.1,0.4L3.7,2C3.6,1.9,3.6,1.8,3.4,1.9
	C3.3,2,3.2,2,3.1,1.9c0.3-0.1,0.6-0.1,0.7-0.2C3.7,1.8,3.7,1.9,3.7,2z M19,1.1L19,1.1c0.1,0.1,0.2,0.1,0.2,0.1c0,0,0.1,0,0.1,0
	c-0.2,0-0.3,0.1-0.3,0.1c0,0-0.1,0-0.2,0c0.1,0,0.1,0,0.1,0C18.9,1.3,19,1.3,19,1.1C19,1.2,19,1.2,19,1.1L19,1.1z M32.7,0.9
	c0.1,0.1,0.1,0.2,0,0.3V0.9z M10.5,1.4l0.4,0.1C10.7,1.5,10.5,1.5,10.5,1.4L10.5,1.4z M4.4,1.3c0.1,0.1,0.1,0.2-0.2,0.2L4.4,1.3z
	 M9.4,1.6C9.3,1.4,9.3,1.3,9.6,1.2C9.7,1.3,9.6,1.5,9.4,1.6L9.4,1.6z M5.3,1.5c-0.2,0-0.3,0-0.4,0.1C4.8,1.8,4.7,1.9,4.6,1.9
	c0.1-0.4,0.4-0.6,0.8-0.8V1.5z M4.9,1.1L4.9,1.1c0,0.1-0.1,0.2-0.3,0.2V1.3C4.7,1.2,4.7,1.1,4.9,1.1L4.9,1.1z M31.5,0.9
	c0.1,0,0.2,0,0.3-0.1c0.1-0.1,0.2-0.1,0.3-0.1V1C32.1,1,32,1,32,1c0-0.1,0-0.1-0.1-0.1c-0.1,0-0.1,0.1-0.1,0.2
	c-0.1-0.1-0.2-0.1-0.2,0c0,0.1-0.1,0.1-0.3,0.1c-0.2,0-0.2,0-0.2,0c0.1,0,0.1-0.1,0-0.1c-0.1,0.1-0.1,0.1-0.2,0.2
	c-0.1,0-0.2,0-0.3,0c0.1-0.1,0.2-0.2,0.4-0.3c0.1-0.1,0.3-0.2,0.5-0.3C31.5,0.7,31.5,0.8,31.5,0.9L31.5,0.9z M30.3,0.6
	c0.1,0.1,0.2,0.1,0.3,0.1l-0.1,0c-0.1,0.1-0.2,0.1-0.3,0.1V0.6z M29.5,1c-0.1-0.1-0.1-0.1-0.1-0.2c0-0.1,0-0.2-0.1-0.3
	C29.6,0.6,29.7,0.8,29.5,1L29.5,1z M7.1,1.1L7.1,1.1c0-0.2,0-0.2-0.1-0.2c0.1,0,0.2,0,0.3,0c0.1,0,0.1,0,0.2-0.1
	C7.5,0.9,7.4,1,7.1,1.1L7.1,1.1z M5.2,0.9c0.1,0.1,0.1,0.1,0,0.2C5.1,1,4.9,1,4.7,0.9c0.1-0.1,0.2-0.1,0.2-0.1c0,0,0.1,0,0.2,0
	C5.1,0.7,5.1,0.8,5.2,0.9z"/>
</svg>
