<?xml version="1.0" encoding="utf-8"?>
<!-- Generator: Adobe Illustrator 19.1.0, SVG Export Plug-In . SVG Version: 6.00 Build 0)  -->
<!DOCTYPE svg PUBLIC "-//W3C//DTD SVG 1.1//EN" "http://www.w3.org/Graphics/SVG/1.1/DTD/svg11.dtd">
<svg version="1.1" id="Layer_1" xmlns="http://www.w3.org/2000/svg" xmlns:xlink="http://www.w3.org/1999/xlink" x="0px" y="0px"
	 viewBox="0 0 363 13" style="enable-background:new 0 0 363 13;" xml:space="preserve">
<style type="text/css">
	.st0{fill-rule:evenodd;clip-rule:evenodd;fill:#FFFFFF;}
</style>
<path class="st0" d="M363-0.3H0c0,0,0,5.3,0,6.7c3.8,0.4,6.9,2.2,6.9,2.2l4.9,1.4c0,0,4.1-4.4,6.1-2.5c2,1.9,5.7,3.8,5.7,3.8
	s0.8,2.4,2.8,1.4c2-1,7.7,0,7.7,0s0.4-2.4,2.4-2.9c2-0.5,4.9-1.4,6.9-2.9c2-1.4,6.1-1.4,6.5,0.5c0.4,1.9,1.6,5.3,4.1,2.9
	C56.5,8,59,7,61,8c2,1,8.1,1.4,12.2,1c4.1-0.5,7.7-1.9,11-1c3.3,1,2.8,1.4,10.2,1c7.3-0.5,8.9-1.4,15.9-1.9c6.9-0.5,8.1-1,11.8,0.5
	c3.7,1.4,4.7,2.5,6,2c1.2-0.5,3.7-1.4,7.3-0.5c3.7,1,10.9,2.3,12.1,2.3c1.2,0,6.5,0.5,8.5,0.5c2,0,10.6,1.9,13-1
	c2.4-2.9,6.2-2.3,9.5-2.3c3.3,0,5.3,1.4,8.1,0c2.8-1.4,9.8-1.4,9.8-1.4s6.5,3.4,8.9,3.4c2.4,0,3.3,2.4,8.9,1
	c5.7-1.4,5.3-2.4,10.2-2.4c4.9,0,9.8-0.5,12.2-0.5c2.4,0,8.5,1.4,13,1.4c4.5,0,13.6,3.2,16.4,1.8c2.8-1.4,5.7-2.9,7.7-2.4
	c2,0.5,2.8-2.9,6.1-1.9c3.3,1,4.1,5.3,4.5,3.8c0.4-1.4,4.1-5.7,6.1-2.9c2,2.9,5.7,1,8.9,0.5c3.3-0.5,11-1,11-2.9c0-1.9,3.3-1,8.1,1
	c4.9,1.9,8.5,2.9,9.8,1.9c1.2-1,6.1-3.4,10.6-1c4.5,2.4,11-5.7,13.8-2.4c2.3,2.7,6.1,0.8,10.4,0.9V-0.3z"/>
</svg>
