<?xml version="1.0" encoding="utf-8"?>
<!-- Generator: Adobe Illustrator 19.1.0, SVG Export Plug-In . SVG Version: 6.00 Build 0)  -->
<!DOCTYPE svg PUBLIC "-//W3C//DTD SVG 1.1//EN" "http://www.w3.org/Graphics/SVG/1.1/DTD/svg11.dtd">
<svg version="1.1" id="Layer_1" xmlns="http://www.w3.org/2000/svg" xmlns:xlink="http://www.w3.org/1999/xlink" x="0px" y="0px"
	 viewBox="0 0 1206 18.7" style="enable-background:new 0 0 1206 18.7;" xml:space="preserve">
<style type="text/css">
	.st0{fill:#FFFFFF;}
</style>
<path class="st0" d="M5,6.9c0,0,5.9,1.1,6.9,0.4s4-3.3,6.1-2C20,6.7,23.7,8,23.7,8s0.8,1.7,2.8,1c2-0.7,7.7,0,7.7,0
	s9.3,2.6,13.4,2.3c4-0.3,9.3-0.6,13.8-1c4.4-0.3,12.5,1.3,17.4,2.3c4.9,1,13.8-3,19-3c5.3,0,8.9,3,15,1.7c6.1-1.3,11.3,0,17,1
	c5.7,1,5.7,1.3,9.7,0.7c4-0.7,6.1,0.3,10.1,2.3c4,2,10.5,3.6,14.2,3.3c3.6-0.3,6.1-4,7.3-3c1.2,1,12.5-3.6,15.8-5.6
	c3.2-2,7.3-1.7,8.9-1c1.6,0.7,7.3,1.3,8.1,0c0.8-1.3,8.9-2.6,10.5-2c1.6,0.7,6.9,3,13.3,0.7C234,5.4,251,6.4,256.7,5
	c5.7-1.3,10.9,1.3,13.8-1c2.8-2.3,9.3,3.3,13.8,1.7c4.4-1.7,9.3,0,10.5,0.7c1.2,0.7,4.9,0,9.7-1.3c4.9-1.3,8.1-2,8.1-0.7
	c0,1.3,7.7,1.7,10.9,2c3.2,0.3,6.9,1.7,8.9-0.3c2-2,5.7,1,6.1,2c0.4,1,1.2-2,4.4-2.7c3.2-0.7,4,1.7,6.1,1.3c2-0.3,4.9,0.7,7.7,1.7
	c2.8,1,11.7,2,16.2,2c4.4,0,10.5-1,12.9-1c2.4,0,7.3,0.3,12.1,0.3c4.9,0,4.5,0.7,10.1,1.7c5.7,1,6.5-0.7,8.9-0.7
	c2.4,0,8.9-2.3,8.9-2.3s6.9,0,9.7,1c2.8,1,4.9,0,8.1,0c3.2,0,6.1,2,8.5,4c2.4,2,10.9,0.7,12.9,0.7c2,0,7.3-0.3,8.5-0.3
	c1.2,0,9.3-3.3,12.9-4c3.6-0.7,6.1,0,7.3,0.3c1.2,0.3,2.4-3.6,6.1-4.6c3.6-1,4.9-0.7,11.7-0.3c6.9,0.3,8.5,1,15.8,1.3
	c7.3,0.3,6.9,0,10.1-0.7c3.2-0.7,6.9,0.3,10.9,0.7c4,0.3,10.1,0,12.1-0.7c2-0.7,4.5,0,6.9,1.7c2.4,1.7,3.6-0.7,4-2
	c0.4-1.3,4.4-1.3,6.5-0.3c2,1,4.9,1.7,6.9,2c2,0.3,2.4,2,2.4,2s5.7-0.7,7.7,0c2,0.7,2.8-1,2.8-1s3.6-1.3,5.7-2.7c2-1.3,6.1,2,6.1,2
	l4.9,2.3l5.1-1l-0.2,2c0,0,9.3,1,13.3,0.7c4-0.3,9.3-0.7,13.8-1c4.4-0.3,12.5,1.3,17.4,2.3c4.9,1,13.8-3,19-3c5.3,0,8.9,3,15,1.7
	c6.1-1.3,11.3,0,17,1c5.7,1,5.7,1.3,9.7,0.7c4-0.7,5.5-3.9,9.6-1.9c4,2,10.5,3.6,14.2,3.3c3.6-0.3,6.1-4,7.3-3
	c1.2,1,13.1,0.6,16.3-1.4c3.2-2,7.3-1.7,8.9-1c1.6,0.7,7.3,1.3,8.1,0c0.8-1.3,8.9-2.6,10.5-2c1.6,0.7,6.9,3,13.3,0.7
	c6.5-2.3,23.5-1.3,29.1-2.6c5.7-1.3,10.9,1.3,13.8-1c2.8-2.3,9.3,3.3,13.8,1.7c4.4-1.7,9.3,0,10.5,0.7c1.2,0.7,4.9,0,9.7-1.3
	c4.9-1.3,8.1-2,8.1-0.7c0,1.3,7.7,1.7,10.9,2c3.2,0.3,6.9,1.7,8.9-0.3c2-2,5.7,1,6.1,2c0.4,1,1.2-2,4.4-2.7c3.2-0.7,4,1.7,6.1,1.3
	c2-0.3,4.9,0.7,7.7,1.7c2.8,1,11.9-1.3,16.3-1.3c4.4,0,10.5-1,12.9-1c2.4,0,7.3,0.3,12.1,0.3c4.9,0,4.5,0.7,10.1,1.7
	c5.7,1,6.5-0.7,8.9-0.7c2.4,0,8.9-2.3,8.9-2.3s6.9,0,9.7,1c2.8,1,4.9,0,8.1,0c3.2,0,7-0.4,9.4,1.6c2.4,2,10.9,0.7,12.9,0.7
	c2,0,7.3-0.3,8.5-0.3c1.2,0,8.4-0.9,12-1.6c3.6-0.7,6.1,0,7.3,0.3c1.2,0.3,2.3-0.4,5.9-1.4c3.6-1,4.9-0.7,11.7-0.3
	c6.9,0.3,8.5,1,15.8,1.3c7.3,0.3,6.9,0,10.1-0.7c3.2-0.7,6.9,0.3,10.9,0.7c4,0.3,10.1,0,12.1-0.7c2-0.7,4.5,0,6.9,1.7
	c2.4,1.7,3.6-0.7,4-2c0.4-1.3,4.4-1.3,6.5-0.3c2,1,4.9,1.7,6.9,2c2,0.3,2.4,2,2.4,2s5.7-0.7,7.7,0c2,0.7,2.8-1,2.8-1
	s3.6-1.3,5.7-2.7c2-1.3,6.1,2,6.1,2l4.9,2.3l6.9-1.3V0H45h-9.5H0v8.4l2.2-0.1L5,6.9z"/>
</svg>
