<?xml version="1.0" encoding="utf-8"?>
<!-- Generator: Adobe Illustrator 19.1.0, SVG Export Plug-In . SVG Version: 6.00 Build 0)  -->
<!DOCTYPE svg PUBLIC "-//W3C//DTD SVG 1.1//EN" "http://www.w3.org/Graphics/SVG/1.1/DTD/svg11.dtd">
<svg version="1.1" id="Layer_1" xmlns="http://www.w3.org/2000/svg" xmlns:xlink="http://www.w3.org/1999/xlink" x="0px" y="0px"
	 viewBox="0 0 18.7 1206" style="enable-background:new 0 0 18.7 1206;" xml:space="preserve">
<style type="text/css">
	.st0{fill:#FFFFFF;}
</style>
<path class="st0" d="M11.7,6c0,0-1.1,5.9-0.4,6.9s3.3,4,2,6.1c-1.3,2-2.7,5.7-2.7,5.7s-1.7,0.8-1,2.8c0.7,2,0,7.7,0,7.7
	S7,44.5,7.4,48.6c0.3,4,0.6,9.3,1,13.8C8.7,66.8,7,74.9,6,79.7c-1,4.9,3,13.8,3,19c0,5.3-3,8.9-1.7,15c1.3,6.1,0,11.3-1,17
	c-1,5.7-1.3,5.7-0.7,9.7c0.7,4-0.3,6.1-2.3,10.1c-2,4-3.6,10.5-3.3,14.2c0.3,3.6,4,6.1,3,7.3c-1,1.2,3.6,12.5,5.6,15.8
	c2,3.2,1.7,7.3,1,8.9c-0.7,1.6-1.3,7.3,0,8.1c1.3,0.8,2.6,8.9,2,10.5c-0.7,1.6-3,6.9-0.7,13.3c2.3,6.5,1.3,23.5,2.6,29.1
	c1.3,5.7-1.3,10.9,1,13.8c2.3,2.8-3.3,9.3-1.7,13.8c1.7,4.4,0,9.3-0.7,10.5c-0.7,1.2,0,4.9,1.3,9.7c1.3,4.9,2,8.1,0.7,8.1
	c-1.3,0-1.7,7.7-2,10.9c-0.3,3.2-1.7,6.9,0.3,8.9c2,2-1,5.7-2,6.1c-1,0.4,2,1.2,2.7,4.4c0.7,3.2-1.7,4-1.3,6.1
	c0.3,2-0.7,4.9-1.7,7.7c-1,2.8-2,11.7-2,16.2c0,4.4,1,10.5,1,12.9c0,2.4-0.3,7.3-0.3,12.1c0,4.9-0.7,4.5-1.7,10.1
	c-1,5.7,0.7,6.5,0.7,8.9c0,2.4,2.3,8.9,2.3,8.9s0,6.9-1,9.7c-1,2.8,0,4.9,0,8.1c0,3.2-2,6.1-4,8.5c-2,2.4-0.7,10.9-0.7,12.9
	c0,2,0.3,7.3,0.3,8.5c0,1.2,3.3,9.3,4,12.9c0.7,3.6,0,6.1-0.3,7.3c-0.3,1.2,3.6,2.4,4.6,6.1c1,3.6,0.7,4.9,0.3,11.7
	c-0.3,6.9-1,8.5-1.3,15.8c-0.3,7.3,0,6.9,0.7,10.1c0.7,3.2-0.3,6.9-0.7,10.9c-0.3,4,0,10.1,0.7,12.1c0.7,2,0,4.5-1.7,6.9
	c-1.7,2.4,0.7,3.6,2,4c1.3,0.4,1.3,4.4,0.3,6.5c-1,2-1.7,4.9-2,6.9c-0.3,2-2,2.4-2,2.4s0.7,5.7,0,7.7c-0.7,2,1,2.8,1,2.8
	s1.3,3.6,2.7,5.7c1.3,2-2,6.1-2,6.1L9,615.2l1,5.1l-2-0.2c0,0-1,9.3-0.7,13.3c0.3,4,0.7,9.3,1,13.8c0.3,4.4-1.3,12.5-2.3,17.4
	c-1,4.9,3,13.8,3,19c0,5.3-3,8.9-1.7,15c1.3,6.1,0,11.3-1,17c-1,5.7-1.3,5.7-0.7,9.7c0.7,4,3.9,5.5,1.9,9.6c-2,4-3.6,10.5-3.3,14.2
	c0.3,3.6,4,6.1,3,7.3c-1,1.2-0.6,13.1,1.4,16.3c2,3.2,1.7,7.3,1,8.9c-0.7,1.6-1.3,7.3,0,8.1c1.3,0.8,2.6,8.9,2,10.5
	c-0.7,1.6-3,6.9-0.7,13.3c2.3,6.5,1.3,23.5,2.6,29.1c1.3,5.7-1.3,10.9,1,13.8c2.3,2.8-3.3,9.3-1.7,13.8c1.7,4.4,0,9.3-0.7,10.5
	c-0.7,1.2,0,4.9,1.3,9.7c1.3,4.9,2,8.1,0.7,8.1c-1.3,0-1.7,7.7-2,10.9c-0.3,3.2-1.7,6.9,0.3,8.9c2,2-1,5.7-2,6.1
	c-1,0.4,2,1.2,2.7,4.4c0.7,3.2-1.7,4-1.3,6.1c0.3,2-0.7,4.9-1.7,7.7c-1,2.8,1.3,11.9,1.3,16.3c0,4.4,1,10.5,1,12.9
	c0,2.4-0.3,7.3-0.3,12.1c0,4.9-0.7,4.5-1.7,10.1c-1,5.7,0.7,6.5,0.7,8.9c0,2.4,2.3,8.9,2.3,8.9s0,6.9-1,9.7c-1,2.8,0,4.9,0,8.1
	c0,3.2,0.4,7-1.6,9.4c-2,2.4-0.7,10.9-0.7,12.9c0,2,0.3,7.3,0.3,8.5c0,1.2,0.9,8.4,1.6,12c0.7,3.6,0,6.1-0.3,7.3
	c-0.3,1.2,0.4,2.3,1.4,5.9c1,3.6,0.7,4.9,0.3,11.7c-0.3,6.9-1,8.5-1.3,15.8c-0.3,7.3,0,6.9,0.7,10.1c0.7,3.2-0.3,6.9-0.7,10.9
	c-0.3,4,0,10.1,0.7,12.1c0.7,2,0,4.5-1.7,6.9c-1.7,2.4,0.7,3.6,2,4c1.3,0.4,1.3,4.4,0.3,6.5c-1,2-1.7,4.9-2,6.9c-0.3,2-2,2.4-2,2.4
	s0.7,5.7,0,7.7c-0.7,2,1,2.8,1,2.8s1.3,3.6,2.7,5.7c1.3,2-2,6.1-2,6.1l-2.3,4.9l1.3,6.9h8.4V46v-9.5V1h-8.4l0.1,2.2L11.7,6z"/>
</svg>
