<?xml version="1.0" encoding="utf-8"?>
<!-- Generator: Adobe Illustrator 19.1.0, SVG Export Plug-In . SVG Version: 6.00 Build 0)  -->
<!DOCTYPE svg PUBLIC "-//W3C//DTD SVG 1.1//EN" "http://www.w3.org/Graphics/SVG/1.1/DTD/svg11.dtd">
<svg version="1.1" id="Layer_1" xmlns="http://www.w3.org/2000/svg" xmlns:xlink="http://www.w3.org/1999/xlink" x="0px" y="0px"
	 viewBox="0 0 363 13" style="enable-background:new 0 0 363 13;" xml:space="preserve">
<style type="text/css">
	.st0{fill-rule:evenodd;clip-rule:evenodd;fill:#FFFFFF;}
</style>
<path class="st0" d="M11.4,8.6l8,1.4c0,0,6.7-4.4,10-2.5c3.3,1.9,9.4,3.8,9.4,3.8s1.3,2.4,4.7,1.4c3.3-1,12.7,0,12.7,0
	s0.7-2.4,4-2.9c3.3-0.5,8-1.4,11.4-2.9c3.3-1.4,10-1.4,10.7,0.5C83,9.4,85,12.8,89,10.4C93,8,97,7,100.4,8c3.3,1,13.4,1.4,20.1,1
	c6.7-0.5,12.7-1.9,18.1-1c5.4,1,4.7,1.4,16.7,1c12-0.5,14.7-1.4,26.1-1.9c11.4-0.5,13.4-1,19.4,0.5c6,1.4,7.8,2.5,9.8,2
	c2-0.5,6-1.4,12-0.5c6,1,17.9,2.3,19.9,2.3c2,0,10.7,0.5,14,0.5c3.3,0,17.4,1.9,21.4-1c4-2.9,10.2-2.3,15.6-2.3
	c5.4,0,8.7,1.4,13.4,0c4.7-1.4,16.1-1.4,16.1-1.4s9.7,1.4,13.7,1.4c4,0,5.4,2.4,14.7,1c6.1-0.9,2.5-3,11.7-3V0L0,0c0,0,0,5.1,0,6.5
	C6.3,6.8,11.4,8.6,11.4,8.6z"/>
</svg>
