<?xml version="1.0" encoding="utf-8"?>
<!-- Generator: Adobe Illustrator 19.1.0, SVG Export Plug-In . SVG Version: 6.00 Build 0)  -->
<!DOCTYPE svg PUBLIC "-//W3C//DTD SVG 1.1//EN" "http://www.w3.org/Graphics/SVG/1.1/DTD/svg11.dtd">
<svg version="1.1" id="Layer_1" xmlns="http://www.w3.org/2000/svg" xmlns:xlink="http://www.w3.org/1999/xlink" x="0px" y="0px"
	 viewBox="0 0 1206 18.7" style="enable-background:new 0 0 1206 18.7;" xml:space="preserve">
<style type="text/css">
	.st0{fill:#FFFFFF;}
</style>
<path class="st0" d="M1202,11.7c0,0-5.9-1.1-6.9-0.4c-1,0.7-4,3.3-6.1,2c-2-1.3-5.7-2.7-5.7-2.7s-0.8-1.7-2.8-1c-2,0.7-7.7,0-7.7,0
	s-9.3-2.6-13.4-2.3c-4,0.3-9.3,0.6-13.8,1c-4.4,0.3-12.5-1.3-17.4-2.3c-4.9-1-13.8,3-19,3c-5.3,0-8.9-3-15-1.7c-6.1,1.3-11.3,0-17-1
	c-5.7-1-5.7-1.3-9.7-0.7c-4,0.7-6.1-0.3-10.1-2.3c-4-2-10.5-3.6-14.2-3.3c-3.6,0.3-6.1,4-7.3,3c-1.2-1-12.5,3.6-15.8,5.6
	c-3.2,2-7.3,1.7-8.9,1c-1.6-0.7-7.3-1.3-8.1,0c-0.8,1.3-8.9,2.6-10.5,2c-1.6-0.7-6.9-3-13.3-0.7c-6.5,2.3-23.5,1.3-29.1,2.6
	c-5.7,1.3-10.9-1.3-13.8,1c-2.8,2.3-9.3-3.3-13.8-1.7c-4.4,1.7-9.3,0-10.5-0.7c-1.2-0.7-4.9,0-9.7,1.3c-4.9,1.3-8.1,2-8.1,0.7
	c0-1.3-7.7-1.7-10.9-2c-3.2-0.3-6.9-1.7-8.9,0.3c-2,2-5.7-1-6.1-2c-0.4-1-1.2,2-4.4,2.7c-3.2,0.7-4-1.7-6.1-1.3
	c-2,0.3-4.9-0.7-7.7-1.7c-2.8-1-11.7-2-16.2-2c-4.4,0-10.5,1-12.9,1c-2.4,0-7.3-0.3-12.1-0.3c-4.9,0-4.5-0.7-10.1-1.7
	c-5.7-1-6.5,0.7-8.9,0.7c-2.4,0-8.9,2.3-8.9,2.3s-6.9,0-9.7-1c-2.8-1-4.9,0-8.1,0c-3.2,0-6.1-2-8.5-4c-2.4-2-10.9-0.7-12.9-0.7
	c-2,0-7.3,0.3-8.5,0.3c-1.2,0-9.3,3.3-12.9,4c-3.6,0.7-6.1,0-7.3-0.3c-1.2-0.3-2.4,3.6-6.1,4.6c-3.6,1-4.9,0.7-11.7,0.3
	c-6.9-0.3-8.5-1-15.8-1.3c-7.3-0.3-6.9,0-10.1,0.7c-3.2,0.7-6.9-0.3-10.9-0.7c-4-0.3-10.1,0-12.1,0.7c-2,0.7-4.5,0-6.9-1.7
	c-2.4-1.7-3.6,0.7-4,2c-0.4,1.3-4.4,1.3-6.5,0.3c-2-1-4.9-1.7-6.9-2c-2-0.3-2.4-2-2.4-2s-5.7,0.7-7.7,0c-2-0.7-2.8,1-2.8,1
	s-3.6,1.3-5.7,2.7c-2,1.3-6.1-2-6.1-2L592.8,9l-5.1,1l0.2-2c0,0-9.3-1-13.3-0.7c-4,0.3-9.3,0.7-13.8,1C556.4,8.7,548.3,7,543.4,6
	c-4.9-1-13.8,3-19,3c-5.3,0-8.9-3-15-1.7c-6.1,1.3-11.3,0-17-1c-5.7-1-5.7-1.3-9.7-0.7c-4,0.7-5.5,3.9-9.6,1.9
	c-4-2-10.5-3.6-14.2-3.3c-3.6,0.3-6.1,4-7.3,3c-1.2-1-13.1-0.6-16.3,1.4c-3.2,2-7.3,1.7-8.9,1c-1.6-0.7-7.3-1.3-8.1,0
	c-0.8,1.3-8.9,2.6-10.5,2c-1.6-0.7-6.9-3-13.3-0.7c-6.5,2.3-23.5,1.3-29.1,2.6c-5.7,1.3-10.9-1.3-13.8,1c-2.8,2.3-9.3-3.3-13.8-1.7
	c-4.4,1.7-9.3,0-10.5-0.7c-1.2-0.7-4.9,0-9.7,1.3c-4.9,1.3-8.1,2-8.1,0.7c0-1.3-7.7-1.7-10.9-2c-3.2-0.3-6.9-1.7-8.9,0.3
	c-2,2-5.7-1-6.1-2c-0.4-1-1.2,2-4.4,2.7c-3.2,0.7-4-1.7-6.1-1.3c-2,0.3-4.9-0.7-7.7-1.7c-2.8-1-11.9,1.3-16.3,1.3
	c-4.4,0-10.5,1-12.9,1c-2.4,0-7.3-0.3-12.1-0.3c-4.9,0-4.5-0.7-10.1-1.7c-5.7-1-6.5,0.7-8.9,0.7c-2.4,0-8.9,2.3-8.9,2.3
	s-6.9,0-9.7-1c-2.8-1-4.9,0-8.1,0c-3.2,0-7,0.4-9.4-1.6c-2.4-2-10.9-0.7-12.9-0.7c-2,0-7.3,0.3-8.5,0.3c-1.2,0-8.4,0.9-12,1.6
	c-3.6,0.7-6.1,0-7.3-0.3c-1.2-0.3-2.3,0.4-5.9,1.4c-3.6,1-4.9,0.7-11.7,0.3c-6.9-0.3-8.5-1-15.8-1.3c-7.3-0.3-6.9,0-10.1,0.7
	c-3.2,0.7-6.9-0.3-10.9-0.7c-4-0.3-10.1,0-12.1,0.7c-2,0.7-4.5,0-6.9-1.7c-2.4-1.7-3.6,0.7-4,2c-0.4,1.3-4.4,1.3-6.5,0.3
	c-2-1-4.9-1.7-6.9-2c-2-0.3-2.4-2-2.4-2s-5.7,0.7-7.7,0c-2-0.7-2.8,1-2.8,1s-3.6,1.3-5.7,2.7c-2,1.3-6.1-2-6.1-2L7.9,9L1,10.3v8.4
	h1161h9.5h35.5v-8.4l-2.2,0.1L1202,11.7z"/>
</svg>
