<svg xmlns="http://www.w3.org/2000/svg" xmlns:xlink="http://www.w3.org/1999/xlink" preserveAspectRatio="xMidYMid" width="46" height="2" viewBox="0 0 46 2">
  <defs>
    <style>
      .cls-1 {
        fill: #b2afab;
        fill-rule: evenodd;
      }
    </style>
  </defs>
  <path d="M11.025,0.191 C10.988,0.216 10.971,0.250 10.971,0.290 C10.681,0.198 10.156,0.163 9.396,0.183 C8.635,0.203 7.929,0.203 7.277,0.183 C7.422,0.213 7.566,0.229 7.712,0.229 C7.856,0.229 7.929,0.250 7.929,0.290 C7.929,0.320 7.946,0.341 7.983,0.351 C8.019,0.361 8.038,0.382 8.038,0.412 C8.038,0.422 7.983,0.445 7.875,0.481 C7.766,0.517 7.747,0.591 7.820,0.703 C7.892,0.693 7.929,0.683 7.929,0.672 C7.929,0.662 7.965,0.657 8.038,0.657 L8.038,0.718 C7.892,0.739 7.766,0.769 7.657,0.810 C7.549,0.851 7.457,0.881 7.386,0.902 C7.313,0.861 7.331,0.815 7.440,0.764 C7.549,0.713 7.457,0.688 7.169,0.688 L6.951,0.688 C6.951,0.657 6.951,0.588 6.951,0.481 C6.951,0.374 6.914,0.285 6.843,0.213 C6.914,0.224 6.968,0.229 7.006,0.229 C7.041,0.229 6.951,0.229 6.734,0.229 C6.517,0.229 6.462,0.221 6.571,0.206 C6.680,0.191 6.588,0.183 6.299,0.183 L5.213,0.183 C5.284,0.234 5.230,0.285 5.050,0.336 C4.868,0.387 4.705,0.422 4.561,0.443 C4.488,0.422 4.524,0.415 4.670,0.420 C4.814,0.425 4.887,0.412 4.887,0.382 C4.887,0.351 4.904,0.318 4.941,0.282 C4.977,0.247 4.923,0.213 4.778,0.183 L3.801,0.183 C3.437,0.234 3.203,0.264 3.094,0.275 C2.986,0.285 2.823,0.316 2.606,0.367 C2.460,0.336 2.315,0.331 2.171,0.351 C2.388,0.392 2.424,0.422 2.280,0.443 C2.134,0.412 1.916,0.417 1.628,0.458 C1.628,0.489 1.663,0.512 1.736,0.527 C1.808,0.542 1.772,0.560 1.628,0.580 C1.555,0.580 1.465,0.575 1.356,0.566 C1.247,0.555 1.120,0.545 0.976,0.535 C0.976,0.514 0.903,0.504 0.759,0.504 L0.541,0.504 C0.468,0.524 0.414,0.540 0.378,0.550 C0.341,0.560 0.251,0.575 0.107,0.596 L0.107,0.917 C0.107,0.948 0.161,0.963 0.270,0.963 C0.378,0.963 0.433,0.978 0.433,1.009 C0.433,1.039 0.395,1.087 0.324,1.154 C0.251,1.221 0.142,1.279 -0.002,1.330 L0.215,1.300 C0.504,1.401 0.922,1.478 1.465,1.529 C2.008,1.580 2.568,1.636 3.149,1.697 C3.003,1.677 2.894,1.664 2.823,1.659 C2.750,1.654 2.677,1.646 2.606,1.636 C2.750,1.595 2.877,1.567 2.986,1.551 C3.094,1.537 3.220,1.508 3.366,1.468 C3.437,1.488 3.510,1.511 3.583,1.537 C3.655,1.562 3.692,1.590 3.692,1.621 C3.692,1.661 3.619,1.669 3.475,1.644 C3.329,1.618 3.257,1.621 3.257,1.651 L3.257,1.758 C3.546,1.779 3.763,1.796 3.909,1.812 C4.054,1.827 4.198,1.840 4.344,1.850 C4.271,1.830 4.235,1.817 4.235,1.812 C4.235,1.807 4.344,1.804 4.561,1.804 C4.778,1.804 4.887,1.809 4.887,1.819 L4.887,1.834 C5.031,1.834 5.140,1.802 5.213,1.735 C5.284,1.669 5.393,1.605 5.539,1.544 C5.610,1.565 5.665,1.577 5.702,1.582 C5.738,1.588 5.756,1.605 5.756,1.636 C5.756,1.687 5.719,1.733 5.647,1.773 C5.574,1.814 5.357,1.860 4.996,1.911 C5.284,1.911 5.593,1.911 5.919,1.911 C6.245,1.911 6.951,1.921 8.038,1.942 C8.038,1.871 8.218,1.825 8.581,1.804 L8.581,1.896 L8.255,1.942 C8.544,1.942 8.978,1.944 9.559,1.949 C10.138,1.955 10.754,1.962 11.406,1.972 C12.057,1.982 12.655,1.990 13.198,1.996 C13.741,2.001 14.049,2.003 14.122,2.003 C14.410,2.003 14.573,1.998 14.611,1.988 C14.646,1.977 14.701,1.962 14.774,1.942 C14.918,1.982 15.135,2.003 15.425,2.003 C15.570,1.982 15.643,1.959 15.643,1.934 C15.643,1.909 15.678,1.886 15.751,1.865 C16.040,1.886 16.132,1.909 16.023,1.934 C15.914,1.959 15.860,1.982 15.860,2.003 L17.707,2.003 C17.778,1.982 17.797,1.967 17.761,1.957 C17.724,1.947 17.743,1.932 17.816,1.911 C17.960,1.932 18.321,1.944 18.902,1.949 C19.481,1.955 20.133,1.955 20.858,1.949 C21.581,1.944 22.251,1.934 22.868,1.919 C23.482,1.903 23.862,1.886 24.008,1.865 C24.080,1.834 24.098,1.812 24.063,1.796 C24.025,1.781 24.080,1.764 24.225,1.743 C24.370,1.764 24.443,1.786 24.443,1.812 C24.443,1.837 24.514,1.865 24.660,1.896 C24.804,1.896 25.438,1.893 26.561,1.888 C27.683,1.883 28.987,1.881 30.473,1.881 C31.956,1.881 33.496,1.881 35.090,1.881 C36.682,1.881 38.059,1.886 39.218,1.896 C39.218,1.865 39.254,1.840 39.327,1.819 C39.833,1.871 40.576,1.896 41.554,1.896 C42.532,1.896 43.309,1.896 43.890,1.896 C44.686,1.896 45.211,1.827 45.465,1.689 C45.718,1.551 45.881,1.391 45.954,1.208 C46.026,1.024 46.008,0.846 45.900,0.672 C45.791,0.499 45.737,0.377 45.737,0.305 C45.737,0.132 45.610,0.037 45.357,0.023 C45.102,0.007 44.686,-0.001 44.107,-0.001 C44.034,-0.001 43.763,0.002 43.292,0.007 C42.821,0.012 42.332,0.020 41.826,0.030 C41.318,0.040 40.848,0.053 40.413,0.068 C39.979,0.084 39.724,0.096 39.653,0.107 C39.653,0.096 39.634,0.091 39.599,0.091 C39.561,0.091 39.544,0.086 39.544,0.076 L39.544,0.061 C39.544,0.051 39.436,0.037 39.218,0.023 C39.001,0.007 38.784,-0.001 38.566,-0.001 C38.203,-0.001 37.986,0.005 37.915,0.015 C37.842,0.025 37.769,0.030 37.697,0.030 C37.697,0.081 37.660,0.116 37.589,0.137 C37.516,0.116 37.480,0.081 37.480,0.030 C36.972,0.020 36.068,0.017 34.764,0.023 C33.460,0.028 32.083,0.032 30.635,0.037 C29.186,0.043 27.846,0.048 26.616,0.053 C25.383,0.058 24.587,0.061 24.225,0.061 C24.370,0.091 24.389,0.137 24.280,0.198 C24.171,0.259 24.044,0.300 23.900,0.320 L23.900,0.290 C23.900,0.280 23.862,0.275 23.791,0.275 C23.718,0.295 23.682,0.308 23.682,0.313 C23.682,0.318 23.645,0.331 23.574,0.351 L23.574,0.107 L23.791,0.168 C23.862,0.147 23.935,0.130 24.008,0.114 C24.080,0.099 24.080,0.081 24.008,0.061 L18.359,0.183 C18.359,0.203 18.321,0.216 18.250,0.221 C18.177,0.226 18.104,0.239 18.033,0.259 C17.960,0.239 17.906,0.226 17.870,0.221 C17.833,0.216 17.743,0.203 17.598,0.183 C17.598,0.203 17.634,0.221 17.707,0.236 C17.778,0.252 17.707,0.259 17.490,0.259 C17.272,0.259 17.036,0.252 16.783,0.236 C16.529,0.221 16.222,0.203 15.860,0.183 C15.643,0.264 15.334,0.300 14.937,0.290 C14.538,0.280 14.410,0.280 14.556,0.290 C14.628,0.311 14.736,0.336 14.882,0.367 C15.026,0.397 15.171,0.433 15.317,0.473 L14.774,0.397 C14.774,0.417 14.790,0.430 14.828,0.435 C14.864,0.441 14.774,0.443 14.556,0.443 C14.339,0.443 14.230,0.433 14.230,0.412 C14.230,0.392 14.230,0.369 14.230,0.343 C14.230,0.318 14.193,0.290 14.122,0.259 C14.049,0.229 13.831,0.203 13.470,0.183 C13.397,0.203 13.361,0.216 13.361,0.221 C13.361,0.226 13.324,0.239 13.253,0.259 C13.180,0.239 13.180,0.221 13.253,0.206 C13.324,0.191 13.253,0.183 13.035,0.183 C12.745,0.183 12.546,0.188 12.438,0.198 C12.329,0.209 12.202,0.213 12.057,0.213 C12.057,0.234 12.112,0.247 12.220,0.252 C12.329,0.257 12.383,0.280 12.383,0.320 C12.383,0.351 12.329,0.361 12.220,0.351 C12.112,0.341 11.984,0.346 11.840,0.367 C11.694,0.346 11.604,0.331 11.569,0.320 C11.531,0.311 11.514,0.285 11.514,0.244 C11.514,0.234 11.531,0.229 11.569,0.229 C11.604,0.229 11.623,0.224 11.623,0.213 L11.623,0.198 L11.623,0.213 L11.731,0.244 C11.586,0.163 11.368,0.122 11.080,0.122 L11.080,0.122 L11.080,0.122 C11.080,0.142 11.061,0.165 11.025,0.191 ZM24.986,1.834 C24.913,1.825 24.894,1.807 24.932,1.781 C24.967,1.756 25.057,1.743 25.203,1.743 C25.275,1.773 25.203,1.804 24.986,1.834 L24.986,1.834 ZM25.855,1.804 C25.855,1.733 26.035,1.707 26.398,1.727 C26.398,1.748 26.217,1.773 25.855,1.804 L25.855,1.804 ZM16.675,1.911 C16.566,1.932 16.439,1.942 16.295,1.942 C16.295,1.921 16.349,1.898 16.458,1.873 C16.566,1.848 16.692,1.840 16.838,1.850 C16.838,1.871 16.783,1.891 16.675,1.911 ZM7.495,1.881 L6.734,1.881 C6.878,1.871 7.060,1.863 7.277,1.857 C7.495,1.853 7.566,1.860 7.495,1.881 L7.495,1.881 ZM27.811,1.735 C27.738,1.761 27.665,1.789 27.593,1.819 C27.593,1.769 27.520,1.727 27.376,1.697 L27.485,1.682 C27.556,1.672 27.702,1.666 27.919,1.666 C27.919,1.687 27.882,1.710 27.811,1.735 ZM6.299,1.896 C6.153,1.845 6.299,1.799 6.734,1.758 C6.734,1.830 6.588,1.875 6.299,1.896 L6.299,1.896 ZM24.986,1.743 C24.913,1.723 24.894,1.695 24.932,1.659 C24.967,1.623 25.057,1.610 25.203,1.621 C25.348,1.661 25.275,1.702 24.986,1.743 L24.986,1.743 ZM41.826,1.560 L42.260,1.590 C42.114,1.600 41.970,1.610 41.826,1.621 C41.680,1.631 41.535,1.631 41.391,1.621 L41.826,1.560 ZM15.860,1.819 L15.751,1.804 C15.678,1.794 15.643,1.784 15.643,1.773 C15.643,1.764 15.605,1.753 15.534,1.743 C15.678,1.733 15.806,1.725 15.914,1.720 C16.023,1.715 16.149,1.712 16.295,1.712 C16.077,1.764 15.931,1.799 15.860,1.819 L15.860,1.819 ZM10.211,1.789 L9.993,1.789 C9.847,1.789 9.776,1.773 9.776,1.743 C9.776,1.784 9.847,1.796 9.993,1.781 C10.138,1.766 10.211,1.769 10.211,1.789 L10.211,1.789 ZM14.230,1.712 C14.375,1.733 14.410,1.748 14.339,1.758 C14.193,1.758 14.084,1.746 14.013,1.720 C13.940,1.695 13.976,1.682 14.122,1.682 C14.122,1.692 14.157,1.702 14.230,1.712 L14.230,1.712 ZM13.470,1.651 L13.579,1.666 L13.796,1.727 L13.687,1.743 C13.614,1.753 13.470,1.758 13.253,1.758 C13.397,1.727 13.470,1.692 13.470,1.651 L13.470,1.651 L13.470,1.651 ZM8.309,1.712 C8.272,1.723 8.326,1.738 8.472,1.758 C8.326,1.758 8.182,1.773 8.038,1.804 C7.965,1.784 7.965,1.764 8.038,1.743 C8.109,1.723 8.182,1.697 8.255,1.666 C8.326,1.687 8.345,1.702 8.309,1.712 ZM3.909,1.666 C4.415,1.646 4.597,1.666 4.452,1.727 L3.909,1.666 ZM24.443,1.666 C24.297,1.616 24.370,1.560 24.660,1.498 C24.660,1.549 24.587,1.605 24.443,1.666 L24.443,1.666 ZM17.598,1.605 L17.598,1.834 C17.525,1.834 17.490,1.830 17.490,1.819 C17.490,1.809 17.452,1.799 17.381,1.789 C17.308,1.789 17.272,1.794 17.272,1.804 C17.272,1.814 17.235,1.825 17.164,1.834 C17.091,1.784 17.235,1.707 17.598,1.605 L17.598,1.605 ZM4.670,1.621 C4.524,1.621 4.361,1.618 4.181,1.613 C3.999,1.608 3.909,1.595 3.909,1.575 C4.415,1.575 4.670,1.590 4.670,1.621 L4.670,1.621 ZM41.337,1.429 C41.228,1.445 41.210,1.432 41.283,1.391 L41.391,1.406 C41.462,1.417 41.500,1.437 41.500,1.468 C41.500,1.427 41.446,1.414 41.337,1.429 ZM15.969,1.590 L16.186,1.590 C16.330,1.590 16.403,1.580 16.403,1.560 C16.621,1.610 16.474,1.621 15.969,1.590 L15.969,1.590 ZM6.625,1.498 C6.843,1.549 6.843,1.590 6.625,1.621 L6.625,1.498 ZM41.391,1.391 L41.500,1.376 C41.571,1.366 41.608,1.350 41.608,1.330 C41.753,1.371 41.680,1.391 41.391,1.391 L41.391,1.391 ZM10.971,1.422 L10.971,1.529 C10.825,1.508 10.754,1.483 10.754,1.452 C10.754,1.422 10.825,1.412 10.971,1.422 L10.971,1.422 ZM15.751,1.529 C15.751,1.508 15.733,1.486 15.697,1.460 C15.660,1.435 15.714,1.412 15.860,1.391 C16.004,1.463 15.969,1.508 15.751,1.529 L15.751,1.529 ZM24.986,1.345 C24.913,1.253 25.057,1.208 25.421,1.208 C25.421,1.259 25.275,1.305 24.986,1.345 L24.986,1.345 ZM39.490,1.200 C39.381,1.226 39.181,1.244 38.892,1.253 C38.892,1.233 38.964,1.215 39.110,1.200 C39.254,1.185 39.398,1.162 39.544,1.131 C39.616,1.152 39.599,1.174 39.490,1.200 ZM40.522,1.131 L40.522,1.192 C40.593,1.172 40.593,1.136 40.522,1.085 L40.522,1.131 ZM0.867,1.253 C0.867,1.264 0.830,1.279 0.759,1.300 C0.759,1.279 0.776,1.256 0.813,1.230 C0.849,1.206 0.939,1.197 1.085,1.208 C0.939,1.228 0.867,1.244 0.867,1.253 ZM31.070,1.146 L31.070,1.253 C30.924,1.233 30.853,1.210 30.853,1.185 C30.853,1.159 30.924,1.146 31.070,1.146 L31.070,1.146 ZM33.243,1.070 L33.352,1.085 C33.496,1.106 33.532,1.126 33.460,1.146 C33.460,1.136 33.423,1.126 33.352,1.116 C33.279,1.106 33.243,1.091 33.243,1.070 L33.243,1.070 ZM31.722,1.146 C31.649,1.126 31.540,1.111 31.396,1.101 C31.831,1.101 32.048,1.126 32.048,1.177 C31.902,1.177 31.793,1.167 31.722,1.146 ZM30.853,1.101 L30.744,1.101 C30.671,1.101 30.635,1.091 30.635,1.070 L30.853,1.101 ZM0.704,1.085 C0.596,1.096 0.468,1.101 0.324,1.101 C0.468,1.121 0.631,1.126 0.813,1.116 C0.993,1.106 1.085,1.091 1.085,1.070 C0.939,1.070 0.813,1.075 0.704,1.085 ZM32.645,0.940 C32.537,0.965 32.409,0.978 32.265,0.978 C32.409,0.958 32.482,0.940 32.482,0.925 C32.482,0.909 32.554,0.892 32.700,0.871 C32.771,0.892 32.754,0.915 32.645,0.940 ZM44.053,0.726 C43.944,0.741 43.817,0.739 43.673,0.718 C43.673,0.728 43.708,0.739 43.781,0.749 C43.853,0.739 43.907,0.723 43.944,0.703 C43.980,0.683 44.070,0.672 44.216,0.672 C44.216,0.693 44.162,0.711 44.053,0.726 ZM24.769,0.649 C24.840,0.675 24.804,0.703 24.660,0.733 C24.514,0.713 24.460,0.690 24.497,0.665 C24.533,0.639 24.551,0.611 24.551,0.580 C24.623,0.601 24.696,0.624 24.769,0.649 ZM37.915,0.566 C37.915,0.545 37.986,0.532 38.132,0.527 C38.276,0.522 38.385,0.514 38.458,0.504 C38.458,0.545 38.276,0.566 37.915,0.566 L37.915,0.566 ZM16.729,0.749 C16.729,0.708 16.800,0.678 16.946,0.657 C17.164,0.688 17.091,0.718 16.729,0.749 L16.729,0.749 ZM14.339,0.642 L14.339,0.749 C14.193,0.728 14.122,0.705 14.122,0.680 C14.122,0.655 14.193,0.642 14.339,0.642 L14.339,0.642 ZM12.057,0.703 L12.057,0.779 L12.057,0.657 L12.057,0.703 ZM23.791,0.703 L23.791,0.489 C23.862,0.479 23.900,0.484 23.900,0.504 C23.900,0.524 23.917,0.547 23.954,0.573 C23.990,0.599 23.935,0.642 23.791,0.703 L23.791,0.703 ZM14.665,0.688 C14.592,0.667 14.592,0.644 14.665,0.619 C14.736,0.594 14.845,0.580 14.991,0.580 C14.991,0.632 14.882,0.667 14.665,0.688 L14.665,0.688 ZM1.845,0.580 L1.845,0.688 C1.555,0.667 1.446,0.644 1.519,0.619 C1.590,0.594 1.699,0.580 1.845,0.580 L1.845,0.580 ZM42.478,0.382 L42.478,0.412 C42.478,0.422 42.369,0.438 42.152,0.458 C42.152,0.407 42.260,0.382 42.478,0.382 L42.478,0.382 ZM0.813,0.604 C0.776,0.629 0.686,0.647 0.541,0.657 C0.541,0.637 0.577,0.616 0.650,0.596 C0.721,0.575 0.759,0.560 0.759,0.550 C0.830,0.560 0.849,0.578 0.813,0.604 ZM4.670,0.619 C4.670,0.655 4.632,0.693 4.561,0.733 L4.561,0.627 C4.561,0.586 4.488,0.575 4.344,0.596 C4.198,0.616 4.054,0.616 3.909,0.596 C4.344,0.575 4.632,0.550 4.778,0.519 C4.705,0.550 4.670,0.583 4.670,0.619 ZM24.008,0.351 L24.117,0.367 C24.188,0.377 24.243,0.382 24.280,0.382 C24.316,0.382 24.370,0.387 24.443,0.397 C24.225,0.407 24.098,0.415 24.063,0.420 C24.025,0.425 23.935,0.428 23.791,0.428 C23.862,0.428 23.900,0.422 23.900,0.412 C23.900,0.402 23.917,0.392 23.954,0.382 C23.990,0.372 24.008,0.361 24.008,0.351 L24.008,0.351 ZM41.283,0.275 C41.427,0.295 41.427,0.331 41.283,0.382 L41.283,0.275 ZM13.253,0.428 L13.796,0.473 C13.433,0.473 13.253,0.458 13.253,0.428 L13.253,0.428 ZM5.539,0.412 C5.683,0.453 5.610,0.473 5.322,0.473 L5.539,0.412 ZM11.840,0.504 C11.694,0.443 11.767,0.397 12.057,0.367 C12.202,0.417 12.129,0.463 11.840,0.504 L11.840,0.504 ZM6.734,0.473 C6.517,0.473 6.335,0.489 6.191,0.519 C6.045,0.550 5.900,0.580 5.756,0.611 C5.900,0.499 6.226,0.417 6.734,0.367 L6.734,0.473 ZM6.191,0.351 L6.191,0.382 C6.191,0.392 6.082,0.407 5.865,0.428 L5.865,0.397 C5.865,0.367 5.973,0.351 6.191,0.351 L6.191,0.351 ZM39.762,0.275 C39.906,0.275 40.014,0.264 40.087,0.244 C40.159,0.224 40.305,0.209 40.522,0.198 L40.522,0.320 C40.449,0.320 40.413,0.316 40.413,0.305 C40.413,0.285 40.376,0.275 40.305,0.275 C40.232,0.285 40.196,0.311 40.196,0.351 C40.050,0.331 39.960,0.331 39.924,0.351 C39.887,0.372 39.762,0.382 39.544,0.382 C39.327,0.382 39.254,0.377 39.327,0.367 C39.398,0.356 39.398,0.341 39.327,0.320 C39.254,0.341 39.164,0.358 39.055,0.374 C38.947,0.389 38.819,0.387 38.675,0.367 C38.819,0.336 38.982,0.303 39.164,0.267 C39.344,0.231 39.544,0.203 39.762,0.183 C39.688,0.213 39.688,0.244 39.762,0.275 L39.762,0.275 ZM38.240,0.183 C38.385,0.203 38.529,0.219 38.675,0.229 L38.566,0.244 C38.420,0.264 38.312,0.275 38.240,0.275 L38.240,0.183 ZM37.263,0.305 C37.190,0.285 37.154,0.262 37.154,0.236 C37.154,0.211 37.117,0.183 37.045,0.152 C37.334,0.193 37.407,0.244 37.263,0.305 L37.263,0.305 ZM8.907,0.336 L8.907,0.305 C8.907,0.285 8.870,0.275 8.798,0.275 C8.942,0.264 9.051,0.262 9.124,0.267 C9.195,0.273 9.268,0.264 9.341,0.244 C9.486,0.285 9.341,0.316 8.907,0.336 L8.907,0.336 ZM6.517,0.275 C6.588,0.295 6.588,0.316 6.517,0.336 C6.444,0.326 6.226,0.305 5.865,0.275 C6.009,0.254 6.099,0.239 6.136,0.229 C6.172,0.219 6.262,0.213 6.408,0.213 C6.408,0.234 6.444,0.254 6.517,0.275 Z" class="cls-1"/>
</svg>
