<?xml version="1.0" standalone="no"?>
<!DOCTYPE svg PUBLIC "-//W3C//DTD SVG 20010904//EN"
 "http://www.w3.org/TR/2001/REC-SVG-20010904/DTD/svg10.dtd">
<svg version="1.0" xmlns="http://www.w3.org/2000/svg"
 width="752.000000pt" height="689.000000pt" viewBox="0 0 752.000000 689.000000"
 preserveAspectRatio="xMidYMid meet">
<metadata>
Created by potrace 1.14, written by Peter Selinger 2001-2017
</metadata>
<g transform="translate(0.000000,689.000000) scale(0.100000,-0.100000)"
fill="#000000" stroke="none">
<path d="M3215 6881 c-11 -5 -51 -12 -90 -16 -38 -4 -77 -11 -86 -16 -9 -4
-43 -13 -75 -19 -33 -5 -70 -12 -84 -15 -14 -2 -65 -16 -115 -30 -49 -15 -101
-29 -115 -32 -14 -3 -29 -9 -35 -13 -5 -5 -46 -20 -90 -35 -44 -15 -96 -34
-115 -43 -19 -9 -40 -17 -46 -18 -16 -3 -238 -113 -329 -163 -72 -39 -303
-187 -315 -202 -3 -3 -27 -20 -55 -39 -27 -19 -59 -41 -70 -51 -11 -10 -39
-33 -61 -53 -23 -20 -44 -36 -47 -36 -8 0 -387 -377 -387 -385 0 -4 -22 -33
-48 -64 -27 -31 -77 -94 -111 -141 -34 -47 -70 -95 -80 -107 -10 -11 -24 -35
-31 -52 -7 -18 -21 -36 -32 -42 -10 -5 -16 -14 -13 -18 2 -5 -5 -21 -17 -37
-12 -15 -23 -33 -24 -40 -1 -8 -11 -26 -22 -42 -28 -38 -102 -183 -102 -198 0
-6 -6 -17 -14 -23 -8 -7 -18 -26 -21 -42 -4 -16 -11 -29 -16 -29 -5 0 -9 -7
-9 -15 0 -9 -8 -30 -17 -48 -9 -18 -18 -36 -19 -42 -1 -5 -12 -35 -24 -65 -25
-63 -86 -251 -95 -295 -4 -16 -10 -39 -15 -50 -8 -19 -25 -93 -56 -250 -7 -38
-20 -124 -29 -190 -8 -66 -20 -149 -25 -185 -23 -159 5 -824 39 -913 6 -15 13
-56 17 -92 4 -36 11 -65 15 -65 5 0 9 -12 9 -27 1 -28 16 -93 45 -193 9 -30
18 -63 20 -72 4 -20 63 -191 78 -228 5 -14 16 -39 23 -57 8 -17 17 -45 20 -62
4 -17 10 -31 14 -31 4 0 13 -15 20 -32 22 -58 90 -191 131 -258 22 -36 42 -73
45 -82 4 -10 11 -18 16 -18 5 0 7 -4 4 -9 -3 -5 1 -14 9 -21 8 -7 15 -19 15
-26 0 -8 5 -14 10 -14 6 0 15 -10 20 -22 12 -27 87 -135 136 -195 19 -23 34
-44 34 -48 0 -3 9 -16 20 -28 62 -70 90 -106 90 -116 0 -6 4 -11 10 -11 13 0
89 -82 90 -97 0 -7 6 -13 13 -13 16 0 97 -82 97 -98 0 -7 6 -12 13 -12 6 0 39
-26 73 -58 92 -86 122 -112 128 -112 4 0 17 -9 29 -20 23 -21 174 -145 192
-158 6 -4 27 -16 48 -26 20 -11 37 -23 37 -28 0 -4 7 -8 15 -8 8 0 15 -7 15
-15 0 -9 6 -15 13 -13 12 2 48 -17 132 -68 22 -13 48 -27 57 -30 10 -4 18 -13
18 -21 0 -8 4 -12 9 -8 5 3 51 -15 103 -40 51 -25 98 -45 105 -45 6 0 13 -4
15 -8 2 -4 44 -23 93 -41 50 -19 104 -40 120 -47 49 -21 186 -64 206 -64 10 0
20 -4 23 -9 3 -5 36 -14 72 -20 36 -7 73 -16 82 -21 58 -31 150 -35 847 -34
565 1 713 3 765 15 36 8 70 17 75 20 6 4 30 10 55 14 25 4 63 13 85 20 22 7
81 25 130 40 50 15 95 31 100 35 6 4 24 10 40 14 17 4 44 13 60 21 17 7 55 23
85 35 66 27 258 124 355 180 39 22 81 45 95 52 14 7 32 21 41 30 9 10 20 18
24 18 8 0 90 57 119 82 11 10 29 21 40 24 11 4 29 17 39 30 10 13 22 23 26 21
4 -1 20 10 37 24 16 15 50 45 75 68 25 22 51 41 58 41 6 0 11 7 11 15 0 9 8
19 17 22 18 7 253 242 253 253 0 9 39 40 50 40 6 0 10 6 10 13 0 6 27 44 60
82 60 69 66 77 85 107 6 8 37 52 70 97 33 45 67 95 75 111 8 16 21 30 29 30 7
0 11 6 8 15 -4 8 -2 17 3 20 5 3 27 39 50 80 23 41 46 75 51 75 6 0 7 9 4 20
-3 11 -2 20 2 20 5 0 17 18 27 40 10 22 23 46 29 53 13 13 36 68 44 104 3 13
9 23 14 23 5 0 9 7 9 16 0 9 6 28 14 42 19 38 56 135 56 149 0 6 3 13 8 15 4
1 15 32 25 68 10 36 25 88 34 115 8 28 23 84 33 126 9 42 20 81 24 87 3 6 9
32 12 58 3 27 7 51 9 54 8 13 39 227 51 355 2 28 7 66 11 85 8 48 10 490 1
490 -3 0 -9 35 -11 78 -7 123 -24 235 -62 417 -8 39 -21 104 -30 145 -8 41
-19 84 -24 95 -5 11 -12 31 -15 45 -5 25 -41 137 -55 175 -5 11 -18 47 -31 80
-12 33 -31 80 -43 105 -11 25 -20 52 -20 60 0 8 -4 21 -10 28 -15 18 -97 185
-97 195 0 5 -13 26 -30 47 -16 21 -30 42 -30 47 0 6 -13 28 -28 49 -16 21 -31
46 -35 54 -4 8 -16 29 -27 45 -11 17 -23 37 -27 45 -4 8 -11 20 -15 25 -4 6
-19 24 -33 41 -14 18 -25 37 -25 43 0 6 -4 11 -9 11 -5 0 -18 15 -30 33 -41
64 -46 71 -73 95 -15 13 -27 26 -26 30 3 13 -328 362 -344 362 -4 0 -30 21
-57 48 -28 26 -76 67 -108 92 -32 25 -64 53 -71 63 -7 9 -17 17 -22 17 -6 0
-47 27 -93 59 -45 32 -101 69 -122 81 -22 12 -56 34 -75 48 -19 15 -37 27 -40
27 -3 1 -16 7 -30 15 -14 8 -37 21 -53 30 -33 18 -210 106 -252 124 -104 46
-154 66 -168 66 -9 0 -18 4 -21 9 -3 4 -27 14 -53 21 -27 7 -53 17 -58 21 -6
4 -29 12 -50 18 -22 5 -74 19 -115 31 -79 23 -80 24 -174 40 -33 6 -64 14 -70
17 -6 4 -47 14 -91 22 -62 11 -202 15 -620 17 -297 1 -549 -1 -560 -5z m695
-765 c203 -34 338 -104 485 -251 74 -74 112 -122 148 -185 142 -253 154 -554
31 -819 -42 -91 -88 -153 -185 -250 -90 -89 -136 -121 -243 -172 -133 -62
-235 -82 -396 -77 -141 4 -199 19 -191 49 22 74 5 301 -31 419 -80 263 -294
490 -547 581 l-63 22 6 38 c14 89 98 246 186 348 201 234 504 346 800 297z
m-1228 -640 c198 -50 370 -165 508 -340 148 -188 207 -500 141 -749 -41 -156
-160 -347 -270 -433 l-55 -43 -76 72 c-117 112 -293 200 -460 231 -84 16 -228
19 -286 6 -22 -5 -66 -14 -99 -21 -59 -12 -184 -66 -258 -111 l-39 -23 -24 30
c-70 86 -136 240 -159 373 -68 388 128 764 494 947 172 86 393 109 583 61z
m2604 1 c382 -100 653 -427 681 -822 11 -156 -51 -371 -149 -520 -197 -298
-544 -451 -887 -390 -251 44 -457 180 -594 391 -62 96 -67 117 -30 140 104 66
222 176 289 271 155 216 205 533 123 787 -10 33 -19 64 -19 71 0 16 69 45 170
71 122 33 292 33 416 1z m-2956 -1406 c103 -23 152 -41 250 -92 206 -107 371
-317 430 -549 24 -93 38 -234 24 -243 -5 -2 -31 -8 -59 -11 -154 -20 -301 -75
-425 -159 -111 -76 -241 -226 -302 -349 -38 -76 -57 -139 -77 -253 l-16 -90
-80 3 c-170 5 -375 95 -517 228 -140 130 -223 274 -269 469 -36 151 -17 360
45 510 78 189 208 336 386 440 180 104 409 140 610 96z m3509 -98 c391 -227
550 -704 373 -1114 -22 -50 -86 -159 -117 -199 -79 -100 -216 -209 -329 -260
-129 -58 -202 -73 -361 -73 -135 0 -159 2 -238 26 -256 79 -429 221 -555 457
-77 143 -112 329 -93 486 12 97 51 233 80 281 l20 31 80 -23 c224 -65 456 -56
641 25 167 73 302 185 399 328 23 34 45 62 48 62 3 0 27 -12 52 -27z m-2554
-1042 c44 -12 109 -35 145 -52 61 -28 189 -116 190 -130 0 -3 -12 -24 -27 -45
-39 -58 -87 -168 -113 -264 -32 -114 -35 -334 -6 -455 37 -153 130 -320 235
-419 17 -17 31 -35 31 -41 0 -14 -99 -110 -169 -165 -176 -135 -453 -199 -671
-155 -282 58 -492 212 -625 460 -220 409 -68 942 334 1172 172 98 273 124 466
119 93 -2 153 -10 210 -25z m1069 -61 c59 -167 191 -342 333 -438 182 -124
350 -171 568 -160 l105 6 10 -37 c29 -111 18 -295 -26 -428 -81 -241 -256
-440 -474 -537 -113 -50 -124 -54 -225 -71 -111 -20 -205 -18 -316 5 -103 22
-96 19 -221 79 -235 112 -397 317 -469 592 -42 160 -24 373 46 540 96 228 291
409 532 495 99 35 110 32 137 -46z"/>
</g>
</svg>
