<svg id="Layer_1" xmlns="http://www.w3.org/2000/svg" viewBox="0 0 121 3"><style>.st0{fill:#D5D2CC;}</style><path class="st0" d="M115.8 1c-1.3.5-2.4 1-4.9 1-2.4 0-3.6-.5-4.9-1-1.3-.5-2.6-1-5.2-1s-3.9.5-5.2 1c-1.3.5-2.4 1-4.9 1-2.4 0-3.6-.5-4.9-1-1.3-.5-2.6-1-5.2-1s-3.9.5-5.2 1c-1.3.5-2.4 1-4.9 1-2.4 0-3.6-.5-4.9-1-1.3-.5-2.6-1-5.2-1s-3.9.5-5.2 1c-1.3.5-2.4 1-4.9 1-2.4 0-3.6-.5-4.9-1-1.3-.5-2.6-1-5.2-1S36.3.5 35 1c-1.3.5-2.4 1-4.9 1-2.4 0-3.6-.5-4.9-1-1.3-.5-2.6-1-5.2-1s-3.9.5-5.2 1c-1.3.5-2.4 1-4.9 1-2.2 0-3.4-.5-4.7-1C3.9.5 2.6 0 0 0v1c2.4 0 3.6.5 4.9 1 1.3.5 2.6 1 5.2 1s3.9-.5 5.2-1c1.3-.5 2.4-1 4.9-1 2.4 0 3.6.5 4.9 1 1.3.5 2.6 1 5.2 1s3.9-.5 5.2-1c1.3-.5 2.4-1 4.9-1 2.4 0 3.6.5 4.9 1 1.3.5 2.6 1 5.2 1s3.9-.5 5.2-1c1.3-.5 2.4-1 4.9-1 2.4 0 3.6.5 4.9 1 1.3.5 2.6 1 5.2 1s3.9-.5 5.2-1c1.3-.5 2.4-1 4.9-1 2.4 0 3.6.5 4.9 1 1.3.5 2.6 1 5.2 1s3.9-.5 5.2-1c1.3-.5 2.4-1 4.9-1 2.4 0 3.6.5 4.9 1 1.3.5 2.6 1 5.2 1s3.9-.5 5.2-1c1.3-.5 2.4-1 4.9-1V0c-2.8 0-4.1.5-5.4 1z"/></svg>