<svg xmlns="http://www.w3.org/2000/svg" preserveAspectRatio="xMidYMid" width="168" height="65" viewBox="0 0 168 65"><defs><style>.cls-1 { fill: #77c149; fill-rule: evenodd; }</style></defs><path d="M167.765 24.056c-.156.353-.367.66-.632.92s-.575.462-.93.607c-.353.144-.73.216-1.13.216-.4 0-.78-.073-1.136-.217-.356-.145-.668-.347-.936-.607-.267-.26-.48-.567-.635-.92-.156-.352-.234-.738-.234-1.155 0-.406.08-.785.235-1.135.156-.35.368-.654.636-.912.27-.258.58-.46.937-.607.357-.147.735-.22 1.136-.22.4 0 .777.073 1.13.22.355.147.665.35.93.607.265.258.476.56.632.912.156.35.234.73.234 1.136 0 .418-.08.804-.235 1.156zm-.48-2.12c-.122-.3-.29-.56-.507-.778-.216-.22-.47-.39-.76-.517-.292-.126-.607-.19-.945-.19-.344 0-.663.064-.956.19-.294.127-.55.3-.765.518-.216.22-.385.478-.507.777-.122.3-.184.62-.184.966 0 .356.063.685.185.986.122.3.29.563.507.785.216.222.47.396.765.522.293.126.612.19.956.19.338 0 .653-.064.944-.19.29-.126.545-.3.76-.52.217-.223.386-.485.508-.786.122-.3.184-.63.184-.985 0-.345-.063-.666-.185-.965zm-1.33 2.665l-.93-1.452h-.56V24.6h-.532v-3.376h1.32c.405 0 .705.08.9.24.196.16.293.4.293.726 0 .304-.085.526-.257.67-.173.14-.386.224-.64.25l.974 1.49h-.57zm-.313-1.954c.084-.036.15-.092.2-.167.05-.076.074-.18.074-.313 0-.114-.023-.204-.067-.27-.045-.068-.102-.12-.172-.155-.07-.037-.15-.06-.243-.074-.09-.013-.18-.02-.27-.02h-.7v1.075h.553c.12 0 .233-.004.34-.012.106-.006.2-.028.284-.064zm-8.925 18.582c-1.72 8.96-11.152 8.527-15.415 7.726-4.263-.803-13.457-3.88-11.695-13.04 2.056-10.714 16.145-7.993 19.16-7.424 2.95.554 5.186 1.312 5.186 1.312 1.17-6.105-2.128-8.745-8.027-9.856-4.723-.89-8.544-.467-9.878-.247l.876-4.546c2.587-.388 6.094-.602 10.16.165 9.182 1.728 13.202 7.33 11.506 16.164l-1.873 9.744zm-9.287-8.617c-3.933-.74-11.958-1.78-13.105 4.195-.985 5.13 3.746 7.03 7.813 7.796 4.064.77 8.912.672 9.857-4.264.96-5 1.2-6.233 1.2-6.233s-2.09-.797-5.765-1.492zm-18.105-15.273l-8.556-.98-2.33 19.966c-.385 3.28.73 4.673 4.245 5.08 1.592.178 2.824-.015 3.873-.36l-.523 4.466c-1.312.314-2.81.477-4.467.284-2.72-.307-8.855-1.877-7.873-10.282l2.3-19.704-5.77-.66.506-4.332 5.772.657 1.08-9.258 4.775.544-1.082 9.26 8.556.98-.505 4.337zm-21.682 16.245c-.44 9.11-9.84 9.986-14.175 9.78-4.332-.21-13.87-1.983-13.418-11.295.53-10.892 14.86-10.144 17.928-9.997 3 .142 5.316.58 5.316.58.302-6.204-3.334-8.363-9.334-8.65-4.8-.227-8.524.72-9.813 1.123l.226-4.623c2.51-.74 5.95-1.438 10.084-1.24 9.334.445 14.1 5.438 13.667 14.417l-.48 9.905zm-10.407-7.247c-4-.19-12.09-.113-12.386 5.962-.252 5.215 4.7 6.444 8.832 6.643 4.135.196 8.916-.57 9.162-5.587l.307-6.34s-2.178-.5-5.914-.678zM78.578 64.338l-.587-1.398c-.485-1.14-.827-1.274-1.314-1.31-.496-.036-1.062-.102-1.327-.16v3.415h-.393c-.45 0-.667-.228-.667-.663v-6.806c.46-.183 1.36-.352 1.983-.352h.704c1.58 0 2.56.785 2.56 2.122 0 1.232-.83 1.87-1.833 2.01.795.25 1.037.905 1.22 1.326l.716 1.667c.094.205.266.5.368.617v.053s-.413.06-.562.06c-.44 0-.705-.195-.868-.582zm-.103-4.993c0-1.062-.725-1.37-1.58-1.37h-.585c-.28 0-.615.047-.96.127v2.488c.507.08.97.114 1.417.114.83 0 1.708-.366 1.708-1.36zm-6.683-38.46c-.117-3.106-1.206-7.303-9.214-7.013-3.403.126-6.448.896-8.693 1.64L54.905 43l-4.806.176-1.125-30.33c1.575-.854 7.02-3.497 13.96-3.75 8.41-.305 13.377 3.947 13.66 11.612l.795 21.475-4.803.176-.795-21.476zM54.45 7.062l-.008-.002s-.82.61-1.542-.35c-.718-.954 1.21-3.49 1.21-3.49C59.556-4.937 64.32 8.35 69.83.186c0 0 .822-.607 1.54.35.723.955-1.212 3.364-1.212 3.364-5.505 8.225-10.27-5.056-15.71 3.163zM37.154 11.48l4.784-.467 3.267 32.835-4.785.465-3.266-32.833zm1.672-4.27c-1.8 0-3.256-1.442-3.256-3.223 0-1.782 1.457-3.226 3.256-3.226 1.797 0 3.254 1.445 3.254 3.227 0 1.78-1.457 3.223-3.254 3.223zM20.033 29.968L9.16 31.72l2.735 16.64-4.745.765L0 5.603 15.615 3.09C25.43 1.505 31.617 5.396 33.04 14.073c1.427 8.68-3.19 14.314-13.007 15.894zm8.266-15.13c-.69-4.173-2.723-8.735-12.538-7.153L5.482 9.342l2.94 17.88 10.276-1.658c9.815-1.582 10.288-6.546 9.6-10.725zm27.693 42.28h3.52v.446c0 .218-.175.526-.637.526h-2.95v2.238h3.054v.34c0 .367-.266.595-.67.595h-2.384v3.622h-.405c-.45 0-.667-.183-.667-.628v-6.18c0-.696.277-.958 1.14-.958zm10.134 0c.438 0 .726.285 1.06.87.692 1.198 1.927 4.386 2.32 6.897h-.38c-.45 0-.66-.194-.728-.547-.106-.54-.28-1.133-.37-1.508h-3.668c-.15.57-.356 1.414-.472 2.055h-.4c-.34 0-.476-.15-.476-.503 0-1.073 1.56-5.8 2.77-7.263h.343zm1.638 4.878c-.415-1.46-.9-2.72-1.58-3.943-.737 1.304-1.174 2.5-1.58 3.943h3.16zM85.89 57.12c1.012 0 1.45.902 1.738 1.735l1.038 3.048c.174.514.38 1.154.46 1.554.13-.458.327-1.052.52-1.576l1.015-2.796c.312-.857.787-1.69 1.006-1.965h.274c.705 0 1.005.51 1.108 1.472.22 1.962.382 4.48.427 6.293h-.392c-.473 0-.693-.238-.693-.833 0-1.222-.183-4.328-.425-5.724-.183.33-.394.88-.692 1.726l-1.223 3.483c-.16.47-.392 1.015-.565 1.348h-.243c-.31 0-.69-.238-1.29-2.046l-.98-2.935c-.175-.537-.45-1.164-.67-1.563-.322 2.134-.473 4.887-.496 6.543h-.312c-.38 0-.726-.284-.726-.833 0-2.15.43-5.277.726-6.933h.395zm15.088 4.167c-1.532-.33-2.282-.834-2.282-1.942 0-1.323 1.13-2.34 2.976-2.34 1.452 0 2.246.728 2.246 1.44v.467h-.055c-.497-.618-1.14-.923-2.25-.923-1.154 0-1.81.442-1.81 1.196 0 .73.346.972 1.903 1.326 1.108.25 2.41.856 2.41 2.122 0 1.292-.945 2.366-2.95 2.366-1.12 0-2.355-.662-2.355-1.543v-.502h.058c.474.626 1.372 1.06 2.378 1.06 1.347 0 1.773-.487 1.773-1.267 0-.81-.427-1.107-2.042-1.46z" class="cls-1"/></svg>