<?xml version="1.0" encoding="utf-8"?>
<!-- Generator: Adobe Illustrator 19.2.1, SVG Export Plug-In . SVG Version: 6.00 Build 0)  -->
<!DOCTYPE svg PUBLIC "-//W3C//DTD SVG 1.1//EN" "http://www.w3.org/Graphics/SVG/1.1/DTD/svg11.dtd">
<svg version="1.1" id="Layer_1" xmlns="http://www.w3.org/2000/svg" xmlns:xlink="http://www.w3.org/1999/xlink" x="0px" y="0px"
	 viewBox="0 0 50 50" style="enable-background:new 0 0 50 50;" xml:space="preserve">
<style type="text/css">
	.st0{fill:#FFFFFF;}
	.st1{fill:#F3762A;}
</style>
<circle class="st0" cx="24.7" cy="24.7" r="22"/>
<path class="st1" d="M25,0C11.3,0,0.1,11.2,0.1,24.9c0,13.8,11.2,24.9,24.9,24.9C38.8,49.9,50,38.7,50,24.9C50,11.2,38.8,0,25,0z
	 M25,44.8c-11,0-19.8-8.9-19.8-19.8C5.2,14,14.1,5.1,25,5.1c11,0,19.8,8.9,19.8,19.8C44.9,35.9,36,44.8,25,44.8z M30.3,17.6
	c1.5,2.1,2.5,4.7,2.2,7.2c-0.4,4.9-4.6,9.8-9.8,9.7c-1.7,0-4.6-0.8-5.1-3.2c-0.5-2.7,1.3-2.7,0.4-6.7c-1.1-4.6,5.5-11.2,10.1-9
	c0,0,0-0.1,0-0.1c0-0.2,0-0.3,0.2-0.3c0.4-0.1,0.3,0.3,0.5,0.5C29.2,16.5,29.8,17,30.3,17.6z"/>
</svg>
