<?xml version="1.0" encoding="utf-8"?>
<!-- Generator: Adobe Illustrator 19.2.0, SVG Export Plug-In . SVG Version: 6.00 Build 0)  -->
<!DOCTYPE svg PUBLIC "-//W3C//DTD SVG 1.1//EN" "http://www.w3.org/Graphics/SVG/1.1/DTD/svg11.dtd">
<svg version="1.1" id="Layer_1" xmlns="http://www.w3.org/2000/svg" xmlns:xlink="http://www.w3.org/1999/xlink" x="0px" y="0px"
	 viewBox="0 0 50 50" style="enable-background:new 0 0 50 50;" xml:space="preserve">
<style type="text/css">
	.st0{fill:#F3762A;}
	.st1{fill:#FFFFFF;}
</style>
<g>
	<g>
		<circle class="st0" cx="25.1" cy="25.1" r="25.1"/>
	</g>
	<path class="st1" d="M32.4,13.5c-5.3-4.4-16.2,2.3-16.3,8.7c-0.1,5.6-2.5,5-2.7,8.8c-0.2,3.3,3.4,5.3,5.6,5.9
		c6.8,1.8,14-3.3,16.2-9.8c1.1-3.3,0.7-7.1-0.5-10.4c-0.4-1-1-1.9-1.3-2.8c-0.1-0.3,0.2-0.9-0.4-0.9c-0.3,0-0.4,0.1-0.4,0.4
		C32.5,13.4,32.4,13.4,32.4,13.5L32.4,13.5z"/>
</g>
</svg>
