<svg id="Layer_1" xmlns="http://www.w3.org/2000/svg" viewBox="0 0 36.5 6.4"><style>.st0{fill:#FFFFFF;}</style><path class="st0" d="M8.7.6v.3C8.5.6 8.1.5 7.5.6c-.6.1-1.2.1-1.7 0 .1.1.2.1.3.1.1 0 .2.1.2.2v.4s0 .1-.1.2-.1.3 0 .7c.1 0 .1-.1.1-.1h.1v.2l-.3.3c-.1.1-.2.2-.2.3-.1-.1 0-.3 0-.4.1-.2 0-.2-.2-.2h-.2v-.7s0-.6-.1-.9h-.1c-.2 0-.2 0-.1-.1.1 0 0-.1-.2-.1h-.9c.1.2 0 .3-.1.5s-.3.3-.4.4c-.1-.1 0-.1.1-.1s.2 0 .2-.1V.9c0-.1 0-.2-.1-.3H3c-.3.1-.5.2-.5.3-.1 0-.3.1-.4.3-.1-.1-.3-.1-.4-.1.2.1.2.2.1.3-.1-.1-.3-.1-.5 0 0 .1 0 .2.1.2s0 .1-.1.2h-.2c-.1 0-.2-.1-.3-.1 0-.1-.1-.1-.2-.1H.4c0 .1-.1.1-.1.2 0 0-.1.1-.2.1v1c0 .1 0 .1.1.1s.1 0 .1.1 0 .3-.1.5c0 .3-.1.5-.2.6l.2-.1c.2.3.6.6 1 .7.4.2.8.4 1.3.6-.1-.1-.2-.1-.3-.1-.1 0-.1 0-.2-.1.2-.1.3-.2.4-.3.1 0 .2-.1.3-.3l.2.2v.4c0 .1-.1.2-.2.1s-.2-.1-.2 0v.3c.3.1.5.1.6.2.1 0 .2.1.3.1v-.1H4c.1 0 .2-.1.3-.3.1-.2.1-.4.3-.6-.2.1-.1.1-.1.1v.2c0 .2 0 .3-.1.4 0 .2-.2.3-.4.5h.7s.8 0 1.7.1c0-.2.1-.4.4-.4V6l-.3.2h1c.5 0 .9 0 1.5.1.5 0 1 .1 1.4.1h1.1l.1-.1c.1.1.3.2.5.2.1-.1.2-.1.2-.2s0-.2.1-.2c.2.1.3.1.2.2-.1.1-.1.2-.1.2H14c.1-.1.1-.1 0-.1v-.1c.1.1.4.1.9.1h1.6c.6 0 1.1 0 1.6-.1.5 0 .8-.1.9-.2.1-.1.1-.2 0-.2 0 0 0-.1.1-.2.1.1.2.1.2.2s.1.2.2.3H31.1c0-.1 0-.2.1-.2H34.8c.6 0 1-.2 1.2-.7.2-.4.3-1 .4-1.5.1-.6 0-1.2 0-1.7-.1-.6-.1-.9-.1-1.2 0-.6-.1-.9-.3-.9h-1.6c-.4 0-.8 0-1.2.1-.4 0-.8.1-1.1.1-.3 0-.5.1-.6.1 0 0-.1-.1-.3-.1-.3-.2-.4-.2-.6-.2h-.7c0 .2 0 .3-.1.3-.1-.1-.1-.2-.1-.3H19.1c.1.1.1.2 0 .4.1.4 0 .6-.2.6V.9h-.1V1s0 .1-.1.1V.3l.2.2.1-.1c.1 0 .1-.1 0-.2l-4.5.4c0 .1 0 .1-.1.1s-.1.1-.2.1l-.1-.1s-.1-.1-.2-.1c0 .1 0 .1.1.2.1 0 0 .1-.2.1s-.4 0-.6-.1c-.2 0-.4-.1-.7-.2-.2.3-.4.4-.7.3h-.3c.1.1.1.1.3.2l.3.3-.4-.2v.1h-.2c-.2 0-.3 0-.3-.1V1c0-.1 0-.2-.1-.3-.1-.1-.2-.2-.5-.2l-.1.1s0 .1-.1.1c-.1-.1-.1-.1 0-.2.1 0 0-.1-.2-.1h-.8c0 .1 0 .1.1.1s.1.1.1.2 0 .1-.1.1h-.3c.1.3 0 .3 0 .2V.8l.1.1C9.2.5 9 .4 8.8.4c0 .1 0 .1-.1.2zm11.1 5.2c-.1 0-.1-.1 0-.2 0-.1.1-.1.2-.1 0 .1 0 .2-.2.3zm.7-.1c0-.2.1-.3.4-.2 0 .1-.1.1-.4.2zm-7.3.4c-.1.1-.2.1-.3.1 0-.1.1-.2.1-.2.1-.1.2-.1.3-.1.1.1 0 .1-.1.2zM5.9 6h-.6c.1 0 .3-.1.4-.1.2 0 .3 0 .2.1zm16.2-.5c-.1.1-.1.2-.2.3 0-.2-.1-.3-.2-.4h.4v.1zM5 6c-.1-.1 0-.3.3-.4 0 .2-.1.4-.3.4zm14.8-.4c-.1-.1-.1-.2 0-.3 0-.1.1-.2.2-.1s0 .2-.2.4zM33.2 5l.3.1c-.1 0-.2.1-.3.1h-.3l.3-.2zm-20.6.8c-.1-.1-.2-.1-.2-.1s0-.1-.1-.1c.1 0 .2-.1.3-.1h.3c-.2.1-.3.2-.3.3zm-4.5-.1h-.2c-.1 0-.2 0-.2-.1 0 .1.1.2.2.1s.2-.1.2 0zm3.2-.2l.1.1c-.1 0-.2 0-.3-.1 0-.1 0-.1.2 0-.1-.1-.1-.1 0 0zm-.6-.2l.3.2h-.4s.1-.1.1-.2zm-4.1.2s0 .1.1.1c-.1 0-.2 0-.3.1-.1-.1-.1-.1 0-.2l.2-.2v.2zm-3.5-.2c.4-.1.5 0 .4.2l-.4-.2zm16.3 0c-.1-.2-.1-.3.2-.5 0 .1-.1.3-.2.5zM14 5.1v.7h-.1s0-.1-.1-.1h-.1s0 .1-.1.1c0-.1.1-.4.4-.7zm-10.3.1h-.4c-.1-.1-.2-.1-.2-.2.4 0 .6.1.6.2zm29.1-.6c-.1 0-.1 0 0-.1v.1c.1 0 .1 0 .1.1 0-.2 0-.2-.1-.1zm-20.1.5h.2L13 5c.2.1.1.2-.3.1zm-7.4-.3c.2.2.2.3 0 .4v-.4zm27.5-.4c.2 0 .2-.1.2-.2.1.2 0 .2-.2.2zm-24.1.1v.3c-.1 0-.2-.1-.2-.2s.1-.1.2-.1zm3.8.4v-.2c0-.1 0-.2.1-.2.1.2.1.3-.1.4zm7.3-.6c-.1-.3.1-.4.3-.4.1.1-.1.3-.3.4zm11.5-.5c-.1.1-.2.2-.5.2 0-.1.1-.1.2-.2.1 0 .2-.1.3-.2.1.1.1.1 0 .2zm.8-.2v.2c.1-.1.1-.2 0-.3v.1zM.7 4s0 .1-.1.1c0 0 0-.1.1-.1 0-.2.1-.2.2-.1-.2 0-.2.1-.2.1zm23.9-.3V4c-.1-.1-.2-.1-.2-.2.1-.1.1-.1.2-.1zm1.8-.3c.2.1.2.2.2.2s0-.1-.1-.1-.1 0-.1-.1zm-1.2.3c-.1-.1-.1-.1-.3-.1.3 0 .5.1.5.2-.1 0-.2-.1-.2-.1zm-.7-.2c-.1 0-.2 0-.2-.1l.2.1zM.6 3.5H.3c.1.1.2.1.3 0 .2.1.3 0 .3 0-.2-.1-.3-.1-.3 0zM25.9 3c-.1.1-.2.1-.3.1.1-.1.2-.1.2-.2l.2-.2c0 .1 0 .2-.1.3zm9-.7h-.3s0 .1.1.1.1-.1.2-.1c-.1-.1 0-.2.1-.2.1.1 0 .2-.1.2zm-15.3-.2c.1.1 0 .2-.1.3-.1-.1-.2-.1-.1-.2v-.3c.1 0 .2.1.2.2zm10.5-.3c0-.1.1-.1.2-.1s.2 0 .3-.1c-.1.1-.3.2-.5.2zm-16.8.6c0-.1.1-.2.2-.3.1.1.1.2-.2.3zM11.4 2v.3c-.1-.1-.2-.1-.2-.2 0 0 .1-.1.2-.1zm-1.8.2v.2-.3.1zm9.3 0v-.6h.1v.2c0 .1 0 .2-.1.4zm-7.3 0c-.1-.1-.1-.1 0-.2s.1-.1.3-.1c0 .1-.1.2-.3.3zM1.5 1.9v.3c-.3-.1-.4-.1-.3-.2.1-.1.1-.1.3-.1zm32.2-.7c0 .1-.1.2-.3.2 0-.1.1-.2.3-.2zM.6 1.9c0 .1-.1.1-.2.2 0-.1 0-.1.1-.2l.1-.1c.1 0 .1 0 0 .1zm3.1.1c0 .1 0 .2-.1.4l.1-.4c-.1-.1-.1-.2-.3-.1-.1.1-.2.1-.3 0 .3-.1.6-.1.7-.2-.1.1-.1.2-.1.3zM19 1.1c.1.1.2.1.2.1h.1c-.2 0-.3.1-.3.1h-.2.1s.1 0 .1-.2c0 .1 0 .1 0 0zM32.7.9c.1.1.1.2 0 .3V.9zm-22.2.5l.4.1c-.2 0-.4 0-.4-.1zm-6.1-.1c.1.1.1.2-.2.2l.2-.2zm5 .3c-.1-.2-.1-.3.2-.4.1.1 0 .3-.2.4zm-4.1-.1c-.2 0-.3 0-.4.1-.1.2-.2.3-.3.3.1-.4.4-.6.8-.8v.4zm-.4-.4c0 .1-.1.2-.3.2.1-.1.1-.2.3-.2zM31.5.9c.1 0 .2 0 .3-.1.1-.1.2-.1.3-.1V1H32c0-.1 0-.1-.1-.1s-.1.1-.1.2c-.1-.1-.2-.1-.2 0s-.1.1-.3.1h-.2c.1 0 .1-.1 0-.1l-.2.2h-.3c.1-.1.2-.2.4-.3.1-.1.3-.2.5-.3v.2zM30.3.6c.1.1.2.1.3.1h-.1c-.1.1-.2.1-.3.1V.6zm-.8.4c-.1-.1-.1-.1-.1-.2s0-.2-.1-.3c.3.1.4.3.2.5zm-22.4.1c0-.2 0-.2-.1-.2h.3c.1 0 .1 0 .2-.1 0 .1-.1.2-.4.3zM5.2.9c.1.1.1.1 0 .2-.1-.1-.3-.1-.5-.2.1-.1.2-.1.2-.1h.2c0-.1 0 0 .1.1z"/></svg>