<?xml version="1.0" encoding="utf-8"?>
<!-- Generator: Adobe Illustrator 19.2.0, SVG Export Plug-In . SVG Version: 6.00 Build 0)  -->
<!DOCTYPE svg PUBLIC "-//W3C//DTD SVG 1.1//EN" "http://www.w3.org/Graphics/SVG/1.1/DTD/svg11.dtd">
<svg version="1.1" id="Layer_1" xmlns="http://www.w3.org/2000/svg" xmlns:xlink="http://www.w3.org/1999/xlink" x="0px" y="0px"
	 viewBox="0 0 50 50" style="enable-background:new 0 0 50 50;" xml:space="preserve">
<style type="text/css">
	.st0{fill:#796D5D;}
</style>
<path class="st0" d="M24.7,1c-1.5,0-3,0.2-4.4,0.6c0,0,0,0.1,0,0.1c0,0.2-0.1,0.3-0.3,0.5V1.6c-0.8,0.2-1.5,0.5-2.2,0.8
	c0,0.1-0.1,0.2-0.1,0.4c0,0.2,0,0.3-0.1,0.4c-0.1-0.1-0.2-0.3-0.3-0.5c-0.9,0.4-1.7,1-2.5,1.5c0,0.2,0,0.3-0.1,0.4l-0.2-0.2
	c-1.5,1.2-2.7,2.5-3.7,4.1c0.4,0.4,0.6,0.7,0.5,1h-1.1c-0.8,1.6-1.4,3.3-1.7,5.1C8.9,14.8,9,14.9,9,15.1c-0.1,0-0.2,0-0.4-0.1
	c0,0,0,0,0,0c-0.1,0.7-0.2,1.5-0.2,2.3c0,0.8,0.2,1.7,0.5,2.7c0,0,0-0.1,0-0.1L9,19.9c0,0,0,0.1-0.1,0.1c0.1,0.2,0.1,0.4,0.2,0.7
	c0.1-0.1,0.1-0.1,0.2-0.1c0,0,0,0,0,0c-0.1,0.1-0.1,0.1-0.2,0.2c1.4,4.1,4.1,8.9,4.1,8.9l11.4,19.1l10.7-19.1c0,0,5.5-8.5,5.5-12.4
	c0-4.4-1.7-8.4-4.6-11.3c-0.3,0.3-0.6,0.2-0.8-0.1c0.1-0.1,0.3-0.2,0.5-0.2c-1.8-1.8-4.1-3.1-6.6-3.9c0.1,0,0.1,0.1,0.2,0.2
	c-0.2,0.1-0.4,0.1-0.6-0.1c-0.1-0.1-0.2-0.2-0.2-0.3C27.5,1.2,26.1,1,24.7,1z M14.2,6.7c0-0.1,0-0.2,0.1-0.3
	c0.1,0.2,0.1,0.3,0.2,0.4c0,0.1-0.1,0.2-0.6,0.3C14.1,6.9,14.2,6.8,14.2,6.7z M10.8,10.4c0.2-0.2,0.4-0.3,0.6-0.5
	c0.1,0.3,0.1,0.5,0.2,0.4c0,0,0.1,0,0.3,0.2c-0.2,0.2-0.3,0.3-0.4,0.3c-0.1,0-0.2,0.1-0.4,0.3L11,11c-0.1-0.1-0.3-0.1-0.5-0.1
	C10.5,10.7,10.6,10.5,10.8,10.4z M11.3,11.8c-0.2,0-0.3-0.1-0.3-0.3h0.4C11.5,11.7,11.4,11.8,11.3,11.8z M11.3,12.4
	c-0.2,0.3-0.4,0.4-0.6,0.3c-0.3,0-0.4-0.1-0.4-0.3H11.3z M10,18.4h1c-0.3,0.1-0.4,0.1-0.6,0.2C10.3,18.6,10.2,18.5,10,18.4z
	 M11.3,21.9C11.2,21.9,11.2,21.9,11.3,21.9c-0.3-0.1-0.4-0.2-0.6-0.5c0.1-0.1,0.2-0.2,0.2-0.2c0.1,0,0.2,0,0.4-0.1
	c0,0.1,0.1,0.3,0.2,0.4C11.5,21.7,11.4,21.8,11.3,21.9z M11.7,15.3c0,0.2-0.1,0.3-0.4,0.5v-0.3c0-0.1,0.1-0.3,0.4-0.5V15.3z
	 M11.9,13.7c-0.1,0.1-0.2,0.1-0.4,0.1c0-0.2,0-0.4-0.1-0.6c0-0.2,0-0.5,0.2-0.8c0,0.2,0.2,0.5,0.6,0.9C12.1,13.5,12,13.6,11.9,13.7z
	 M12.3,10c0.2-0.2,0.2-0.3,0.2-0.5c0-0.2,0-0.3,0.2-0.3c0,0.2,0,0.4-0.1,0.6C12.6,10.1,12.4,10.2,12.3,10z M12.7,16.4
	c0,0,0.1,0,0.1,0.1c0,0,0,0,0,0C12.8,16.4,12.7,16.4,12.7,16.4z M12.8,16.6C12.8,16.6,12.8,16.6,12.8,16.6c0,0,0.1,0,0.1,0.1
	C12.9,16.7,12.9,16.6,12.8,16.6z M13.7,14.9c0.1-0.2,0.2-0.1,0.2,0.2v1.1c-0.4-0.1-0.7-0.1-0.8-0.1c-0.1,0-0.3,0.1-0.4,0.2
	c-0.2-0.5-0.3-0.9-0.1-1.3c0.2-0.4,0.2-0.9,0.1-1.4h0.5c-0.3-0.2-0.5-0.4-0.4-0.8l0.6,0.5v-0.9c-0.2-0.1-0.4-0.2-0.6-0.3
	c-0.3-0.1-0.2-0.2,0.3-0.4h0.9c0,0.2,0,0.3,0.1,0.4c0.1,0.1,0.1,0.4,0.1,0.7c0,0.3-0.1,0.5-0.3,0.8c-0.2,0.3-0.3,0.5-0.3,0.8
	C13.5,15,13.6,15.1,13.7,14.9z M14.4,10.6c-0.2-0.2-0.3-0.3-0.3-0.4c0.1,0,0.2,0,0.3,0.1c0.2,0.2,0.3,0.3,0.3,0.5L14.4,10.6z
	 M27.8,1.7c0.2,0.2,0.3,0.3,0.3,0.5c0,0.2,0,0.3,0,0.5C27.7,2.5,27.6,2.2,27.8,1.7z M27.8,2.7c0,0.1,0,0.2,0.1,0.3
	c0.1,0.1,0.1,0.2,0.1,0.4c-0.2,0-0.3-0.1-0.4-0.3C27.6,2.9,27.6,2.7,27.8,2.7z M21.9,1.4l0.5,0.3l-1.3,0.6C21.1,2,21.4,1.7,21.9,1.4
	z M21.5,3.4c0,0.4,0,0.7,0,0.8c0,0.1-0.1,0.2-0.4,0.3C21.1,4,21.2,3.6,21.5,3.4z M19,2.5c0.1,0,0,0.3-0.4,0.9
	c-0.2,0-0.2-0.1-0.2-0.3C18.4,2.9,18.6,2.7,19,2.5z M18.2,4.1c-0.2-0.1-0.3-0.1-0.4,0c-0.1,0.1-0.2,0-0.3-0.3
	C17.9,3.7,18.1,3.8,18.2,4.1z M18.3,5.5c0.5,0,1.1-0.4,1.6-1.1c0.2,0.4,0.3,0.7,0.3,0.9c0,0.2,0.2,0.3,0.4,0.5
	c-0.2,0.2-0.3,0.4-0.4,0.6c-0.1,0.2-0.4,0.3-0.8,0.3c0.2-0.3,0.3-0.4,0.4-0.4c0.1,0,0.3-0.1,0.4-0.2C20.2,6,20,5.9,19.7,5.8
	c-0.3-0.1-0.5-0.1-0.8-0.1c-0.5,0-0.8,0.2-1,0.5l-0.5-0.5c0,0.1,0,0.1-0.1,0.1h-0.5C17.3,5.6,17.8,5.5,18.3,5.5z M18.3,7.4l-0.3,0.3
	c-0.1,0.1-0.3,0.1-0.5,0.1l0.3-0.3C18.1,7.3,18.3,7.3,18.3,7.4z M16.7,7.1C17,7,17.4,7,17.8,7.1c-0.2,0.2-0.4,0.4-0.8,0.6
	c-0.3,0.2-0.6,0.3-0.9,0.2c0.3,0.3,0.3,0.6,0,1.1c0-0.3-0.2-0.8-0.6-1.5C16,7.4,16.4,7.3,16.7,7.1z M15.1,31.1
	c-0.1-0.1-0.1-0.2-0.2-0.3c0,0,0-0.1,0-0.1c0.1,0,0.2,0.1,0.3,0.3C15.1,31,15.1,31,15.1,31.1z M15.7,21.5c0.2,0.1,0.3,0.2,0.3,0.2
	c0,0-0.1,0.1-0.1,0.4c0,0.4,0.1,0.7,0.3,0.8c0.2,0.1,0.3,0,0.5-0.1c0.5,0.3,0.6,0.7,0.3,1.3c-0.1-0.1-0.2-0.2-0.3-0.4
	c-0.1-0.2-0.3-0.3-0.4-0.5c-0.2,0.1-0.4,0.3-0.5,0.5c0-0.6,0-1.1,0-1.6C15.7,21.9,15.7,21.7,15.7,21.5z M18.2,25.4
	c0,0.2,0.1,0.4,0.2,0.6c0.1,0.3,0.2,0.5,0.2,0.6c-0.3-0.2-0.4-0.3-0.3-0.3c0,0-0.1,0-0.4,0c-0.1,0-0.3,0-0.7,0.1
	c-0.4,0.1-0.7,0.1-0.8,0c0.5-0.2,0.9-0.3,1.1-0.3C17.6,26.3,17.8,26,18.2,25.4z M17.4,24.7v-1.3c0.2,0.2,0.3,0.4,0.3,0.8
	C17.7,24.5,17.6,24.7,17.4,24.7z M18.2,29l-0.5,0.6c-0.1-0.2-0.1-0.3,0.1-0.4C17.9,29,18,29,18.2,29z M16,24.6
	c0,0.1-0.1,0.3-0.3,0.4v-0.7c0-0.1,0-0.1,0-0.2C15.9,24.3,16,24.5,16,24.6z M16.2,26.8c-0.3,0-0.4,0-0.6-0.1c0-0.2,0-0.3,0-0.4
	c0,0,0,0,0,0C15.8,26.5,16,26.6,16.2,26.8z M15.9,27.8c0.1-0.2,0.2-0.2,0.3-0.1c0.1,0.1,0.1,0.2,0.1,0.3h-0.1
	C16.1,28,16,27.9,15.9,27.8z M16.4,30.9c-0.1,0-0.1-0.1-0.2-0.2c0-0.1,0.1-0.2,0.4-0.4C16.5,30.7,16.5,30.8,16.4,30.9z M17,29.2
	c-0.2,0-0.3,0.1-0.4,0.3c-0.2-0.3,0-0.5,0.6-0.5C17.3,29.1,17.2,29.2,17,29.2z M18.1,34.8C18.1,34.8,18.1,34.8,18.1,34.8
	C18.1,34.8,18.1,34.8,18.1,34.8C18.1,34.8,18.1,34.8,18.1,34.8z M19.8,33c-0.2-0.1-0.2-0.2-0.3-0.4c0.1,0,0.2,0,0.3,0.1V33z
	 M19.8,32.4c-0.1,0-0.2-0.1-0.3-0.1c0-0.1,0.1-0.2,0.1-0.2c0.1,0,0.2,0.1,0.2,0.1V32.4z M19.8,30.1c-0.3,0.2-0.5,0.3-0.7,0.4
	c-0.2,0.1-0.4,0.3-0.7,0.6l-0.2,0c-0.1,0.1-0.1,0.2,0,0.3c0,0,0,0,0,0l-0.6-0.8c0.1,0,0.1-0.1,0.2-0.1c0.1,0,0.3,0,0.4-0.1
	c0,0-0.1,0-0.1-0.1c0.1,0,0.1-0.1,0.2-0.1c0.2-0.1,0.3-0.3,0.3-0.6l0.3,0.5c0.1-0.2,0.2-0.3,0.3-0.5c0.1-0.2,0.4-0.3,0.8-0.5V30.1z
	 M19.2,24.5c0,0.4-0.1,0.6-0.3,0.6C18.8,25.2,18.9,25,19.2,24.5z M19.4,26.8l-0.3,0.1c-0.1-0.1,0-0.2,0.1-0.3c0.2-0.1,0.3,0,0.5,0.1
	H19.4z M20.1,34.6l-0.1-0.2c0.1,0,0.1-0.1,0.2-0.1c0.1,0,0.2,0.1,0.2,0.1C20.4,34.5,20.2,34.5,20.1,34.6z M21.1,29.7
	c-0.1-0.1-0.1-0.1-0.2-0.1c0,0-0.1,0-0.2-0.1c0.1-0.1,0.2-0.1,0.4,0c0.1,0.1,0.1,0.2,0.1,0.4L21.1,29.7z M20.7,28.3
	c0-0.2,0.1-0.4,0.3-0.4c0.1,0.1,0.1,0.2,0.2,0.4c0,0.2,0,0.3-0.2,0.3C20.8,28.6,20.7,28.5,20.7,28.3z M23.1,34.4h-0.3
	c-0.1,0-0.2,0.1-0.2,0.2c0,0,0,0-0.1-0.1c0,0,0-0.1,0-0.2c0,0,0-0.1,0-0.1c0,0,0,0,0-0.1c0-0.1,0.1-0.2,0.1-0.4
	c0.1-0.2,0.1-0.2,0.2-0.3c0.1,0,0.1,0,0.2-0.1c0,0,0.1,0.1,0.1,0.2C23.2,33.8,23.1,34.1,23.1,34.4z M24.4,39.1
	C24.4,39.1,24.4,39.1,24.4,39.1C24.4,39.1,24.4,39.1,24.4,39.1C24.4,39.1,24.4,39.1,24.4,39.1z M24.2,31v-0.9
	c0.1,0.2,0.2,0.3,0.4,0.4c0.2,0.1,0.4,0.3,0.6,0.4H24.2z M25,27.7c-0.2,0.2-0.4,0.2-0.6,0.1l0.3-0.3c0.2-0.2,0.4-0.2,0.6,0
	C25.2,27.6,25.1,27.6,25,27.7z M26.5,44.5C26.5,44.5,26.5,44.5,26.5,44.5L26.5,44.5C26.6,44.6,26.6,44.6,26.5,44.5
	C26.6,44.6,26.5,44.6,26.5,44.5z M26.3,31.1c-0.1,0.1-0.2,0.1-0.4-0.2c0.1,0,0.2,0,0.3-0.1c0.1-0.1,0.3-0.1,0.5-0.1
	C26.5,30.8,26.3,30.9,26.3,31.1z M29,30.2c0,0,0-0.1,0-0.1c0,0,0,0,0,0c0.1-0.2,0.1-0.3,0.1-0.5c0-0.2,0.1-0.3,0.3-0.5
	c0,0.1,0.1,0.2,0.2,0.3C29.4,29.7,29.2,29.9,29,30.2z M30.7,30.8c0-0.1,0.1-0.2,0.2-0.4C30.9,30.7,30.8,30.8,30.7,30.8z M36.4,16.6
	v-0.2c0,0,0.1,0,0.1,0.1C36.4,16.5,36.4,16.5,36.4,16.6z M37.1,23.8C37.1,23.8,37.1,23.8,37.1,23.8C37.1,23.8,37.1,23.8,37.1,23.8
	C37.1,23.8,37.1,23.8,37.1,23.8z M38.2,13.2c-0.1,0.1-0.1,0-0.1-0.3c0-0.1,0-0.1,0.1,0c0.1,0.1,0.1,0.3,0.1,0.5
	C38.3,13.2,38.2,13.1,38.2,13.2z M38.4,9.1c-0.2,0.2-0.4,0.2-0.8,0H38.4z M37.4,24.1c-0.1-0.1-0.2-0.1-0.3-0.2c0,0,0,0,0,0
	c0.2,0,0.4,0,0.5,0.1C37.6,24,37.5,24,37.4,24.1z M36.9,8.2L37,8.3c0.1,0.1,0.1,0.3,0.1,0.6C36.6,8.5,36.6,8.2,36.9,8.2z M36.5,17.3
	L36.5,17.3l0-0.1C36.5,17.2,36.5,17.3,36.5,17.3z M35.4,8.2c0.2,0,0.3,0,0.5-0.1c0.2-0.1,0.4-0.1,0.6,0c-0.2,0.2-0.3,0.4-0.5,0.6
	c-0.2,0.3-0.4,0.5-0.6,0.8V8.2z M34.9,18.6c-0.1-0.1-0.2-0.2-0.3-0.4c0.1-0.1,0.2-0.1,0.2-0.1L34.9,18.6z M34.1,9.6
	c-0.1,0.1-0.2,0.1-0.3,0.1h-0.6C33.7,9.3,33.9,9.3,34.1,9.6z M33.1,8.6c0.1-0.2,0.1-0.3,0.1-0.4c0-0.1,0-0.2,0.1-0.4
	c0.1,0.2,0.1,0.3,0.2,0.4c0,0.1,0.2,0.1,0.4-0.1v1c-0.1-0.3-0.2-0.4-0.4-0.5C33.4,8.6,33.3,8.6,33.1,8.6z M32.5,5.5
	c0.2-0.1,0.3-0.1,0.4-0.1C33,5.3,33.1,5.2,33,5c-0.1-0.2-0.1-0.4-0.1-0.6c0.2,0.4,0.4,0.8,0.6,1c0.3,0.3,0.4,0.6,0.5,1h-0.3
	c-0.1,0-0.2-0.1-0.4-0.3c-0.1,0.2-0.1,0.4-0.1,0.8C33.1,6.8,33,6.5,33,6.2c0-0.3-0.2-0.4-0.6-0.3C32.3,5.8,32.3,5.6,32.5,5.5z
	 M33,10.3c-0.1,0.3-0.1,0.4-0.1,0.2c0-0.1-0.1-0.2-0.3-0.4c-0.2-0.2-0.3-0.3-0.5-0.4c0.1-0.2,0.2-0.2,0.4-0.2c0.2,0,0.3,0,0.5-0.1
	C33.1,9.7,33.1,10,33,10.3z M31.2,5.9c0.1,0,0.1,0,0.1-0.1c0-0.1,0-0.1,0.1-0.1c0,0,0.1,0,0.1-0.1c0.2,0.5,0.6,0.9,1.4,1.3
	c-0.2,0.2-0.4,0.3-0.6,0.4c-0.3,0.1-0.5,0.3-0.9,0.4c0.2-0.3,0.3-0.4,0.4-0.4c0.1,0,0.2-0.1,0.4-0.2c-0.2-0.1-0.6-0.1-1.3-0.1
	c0-0.2,0-0.4,0.1-0.6c0-0.3,0-0.4-0.1-0.5H31C31,5.8,31.1,5.8,31.2,5.9z M30.3,3.3c0-0.2,0.2-0.3,0.6-0.2c-0.2,0.2-0.3,0.4-0.4,0.6
	C30.3,3.9,30.1,4,30,3.9C30.1,3.7,30.2,3.5,30.3,3.3z M30.2,7.2l-0.6,0.6c2.1,1.2,3.6,3.2,4.3,5.6c0.2,0,0.4-0.1,0.6-0.1l0.1,0.7
	c-0.2,0.1-0.3,0.2-0.5,0.3c0,0.1,0,0.2,0.1,0.4c0.1-0.1,0.2-0.2,0.3-0.3c0.1-0.1,0.1-0.1,0.2-0.2l0.1,1.3c0,0,0,0-0.1,0
	c-0.1,0-0.2,0.1-0.4,0.1c0,0.1,0,0.2,0,0.4c0,0.2,0,0.4,0,0.6h0.5l0,0.3c0,0,0,0,0,0c-0.3,0.1-0.4,0.2-0.6,0.3
	c-0.1,0.5-0.2,0.9-0.3,1.4c0.2,0.1,0.3,0.2,0.5,0.4c-0.3,0.7-0.5,1.4-0.5,2.2c-0.2,0-0.3-0.1-0.5-0.3c-0.2-0.2-0.2-0.3-0.1-0.2
	c0-0.1,0-0.2,0.1-0.4c-1.5,3.1-4.6,5.3-8.3,5.4c0.1,0.1,0.2,0.2,0.3,0.4c-0.2,0.3-0.4,0.6-0.7,0.8c-0.3,0.2-0.5,0.4-0.7,0.6
	c-0.1-0.2-0.1-0.4,0-0.6c0.1-0.2,0-0.5-0.1-0.8c0.2,0,0.3,0,0.4,0.1c0.1,0,0.3,0,0.4-0.1c0-0.1-0.1-0.2-0.2-0.4
	c-1.1,0-2.2-0.3-3.2-0.6c0,0,0,0.1,0,0.1c0,0.3,0,0.4,0.1,0.3c0.1-0.1,0.2-0.1,0.4-0.1c-0.2,0.3-0.5,0.5-1,0.6
	c0.3,0.1,0.5,0.1,0.6,0c-0.1,0.3-0.2,0.4-0.4,0.4c-0.2,0-0.4,0.1-0.6,0.1v-1c0.3,0,0.5,0,0.8-0.1c0-0.1-0.2-0.3-0.6-0.5
	c0.1-0.1,0.1-0.1,0.1-0.2c-0.4-0.2-0.8-0.4-1.1-0.6l0,0c0,0,0,0,0,0c-1.2-0.8-2.2-1.8-2.9-3.1c-0.1,0.4-0.3,0.5-0.6,0.5
	c0-0.2,0.1-0.3,0.2-0.4c0.1-0.1,0.2-0.2,0.3-0.3c-0.8-1.4-1.3-3-1.3-4.8c0-5.3,4.3-9.5,9.5-9.5c1.7,0,3.3,0.5,4.7,1.3
	C29.4,7.2,29.6,7,30.2,7.2z M29.6,2.7h-0.9C29,2.2,29.3,2.2,29.6,2.7z"/>
</svg>
