<?xml version="1.0" encoding="utf-8"?>
<!-- Generator: Adobe Illustrator 19.2.0, SVG Export Plug-In . SVG Version: 6.00 Build 0)  -->
<!DOCTYPE svg PUBLIC "-//W3C//DTD SVG 1.1//EN" "http://www.w3.org/Graphics/SVG/1.1/DTD/svg11.dtd">
<svg version="1.1" id="Layer_1" xmlns="http://www.w3.org/2000/svg" xmlns:xlink="http://www.w3.org/1999/xlink" x="0px" y="0px"
	 viewBox="0 0 50 50" style="enable-background:new 0 0 50 50;" xml:space="preserve">
<style type="text/css">
	.st0{fill:#FFCC00;}
	.st1{fill:#FFFFFF;}
</style>
<g>
	<circle class="st0" cx="25" cy="25" r="25"/>
	<path class="st1" d="M29.2,44.4c-2,0.5-3.1,0.1-3.1,0.1c-1.4,0-2.5-0.8-2.9-1.1c-0.4-0.2-1-0.4-1-0.4c0.2-0.2,0.7-0.1,0.7-0.1
		l-0.3-0.3c-0.4-0.3-0.3-0.7-0.3-0.7c-0.9-1.7-2.9-2.8-2.9-2.8l0.4-0.1c-0.3-1,0.1-1.7,0.1-1.7c-1.3-0.9-1.9-4.7-1.9-4.7
		c0.1,0.1,0.6,0.5,0.6,0.5c-0.1-0.6,0.5-1.9,0.5-1.9s0.1-0.5-0.1-1.4c-0.1-0.9-0.6-1.1-0.6-1.1c0.2-0.3,0.6-0.5,0.6-0.5
		c0.4-2.7,2.9-3.7,2.9-3.7c-0.1-0.6,0-1,0-1c-0.9,0-1.1,1-1.1,1c-0.1-0.5,0.5-1.2,0.5-1.2c-1.7-0.5-3.2,1.5-3.2,1.5
		c0.3-2.1,2.8-2.4,2.8-2.4c-0.6-0.8-1.4-0.8-1.4-0.8c-1.6-0.3-2.5,1.3-2.5,1.3c0.7-2.4,3-2.4,3-2.4c-2.5-1.5-5.2,0.4-5.2,0.4
		c2.5-2.5,4.5-1.8,4.5-1.8c-1.1-1.2-4.3-3-4.3-3c0.7,0,3.6,0.5,3.6,0.5C18,16.5,17,15.6,17,15.6c-0.7-0.9-3-2.6-3-2.6
		c2.4,0.4,4.9,1.2,4.9,1.2c-1.7-1.4-2.8-5.3-2.8-5.3c0.4,0.5,1.3,1,1.3,1c1.6,0.7,3.3,2,3.3,2c-0.6-1.7-0.1-6.5-0.1-6.5
		s2.5,4.1,2.6,6c0,0,1-1.9,2.1-3.2c0,0,0.6-0.8,0.8-1.4c0,0,0.6,4-0.3,6c0,0,1.9-1.7,4-3.1c0,0-1.5,2.5-1.7,3.6c0,0-0.5,1.2-0.7,1.5
		c0,0,2.4-1.7,3.1-2c0,0-2.1,2.9-2.6,4.5c0,0,1.5-1.5,4.8-0.2c0,0-3.3-0.6-4.9,1.8c0,0,2.1-1,3.7,0.9c0,0-1.5-1.2-2.8-0.2
		c0,0-0.7,0.4-1,1.3c0,0,2.4-0.7,3.5,1.1c0,0-2.2-1.3-3.6-0.1c0,0,0.9,0.4,0.9,0.9c0,0-0.6-0.8-1.4-0.5c0,0,0.3,0.4,0.4,1
		c0,0,2.6-0.1,4.1,2.2c0,0,0.4,0,0.7,0.2c0,0-0.3,0.4-0.1,1.2c0.2,0.8,0.5,1.3,0.5,1.3s1.1,0.9,1.2,1.6c0,0,0.2-0.5,0.3-0.7
		c0,0,1,3.7,0.2,5c0,0,0.6,0.5,0.8,1.6l0.4-0.1c0,0-1.3,1.8-1.5,3.7c0,0,0.3,0.3,0,0.8l-0.2,0.4c0,0,0.4-0.2,0.7-0.1
		c0,0-0.5,0.4-0.8,0.8c-0.3,0.4-1,1.6-2.2,2.2C32,43.2,31.2,44,29.2,44.4"/>
</g>
</svg>
