<?xml version="1.0" encoding="utf-8"?>
<!-- Generator: Adobe Illustrator 19.2.1, SVG Export Plug-In . SVG Version: 6.00 Build 0)  -->
<!DOCTYPE svg PUBLIC "-//W3C//DTD SVG 1.1//EN" "http://www.w3.org/Graphics/SVG/1.1/DTD/svg11.dtd">
<svg version="1.1" id="Layer_2" xmlns="http://www.w3.org/2000/svg" xmlns:xlink="http://www.w3.org/1999/xlink" x="0px" y="0px"
	 viewBox="0 0 50 50" style="enable-background:new 0 0 50 50;" xml:space="preserve">
<style type="text/css">
	.st0{fill:#FFFFFF;}
	.st1{fill:#FFCC00;}
</style>
<circle class="st0" cx="24.7" cy="24.7" r="22"/>
<path class="st1" d="M24.6,0.5C11,0.5,0,11.5,0,25.1c0,13.6,11,24.6,24.6,24.6c13.6,0,24.6-11,24.6-24.6
	C49.2,11.5,38.2,0.5,24.6,0.5z M24.6,44.6C13.8,44.6,5,35.9,5,25.1C5,14.3,13.8,5.5,24.6,5.5c10.8,0,19.6,8.8,19.6,19.6
	C44.2,35.9,35.4,44.6,24.6,44.6z M32,32.1c0,0-0.9,1.2-1,2.5c0,0,0.2,0.2,0,0.5l-0.1,0.3c0,0,0.2-0.2,0.5-0.1c0,0-0.3,0.3-0.5,0.5
	c-0.2,0.3-0.6,1.1-1.5,1.5c0,0-0.6,0.6-1.9,0.8c-1.3,0.3-2.1,0.1-2.1,0.1c-0.9,0-1.7-0.5-2-0.7c-0.3-0.2-0.7-0.3-0.7-0.3
	c0.2-0.1,0.4-0.1,0.4-0.1l-0.2-0.2c-0.3-0.2-0.2-0.5-0.2-0.5c-0.6-1.1-1.9-1.9-1.9-1.9l0.3-0.1c-0.2-0.7,0.1-1.2,0.1-1.2
	c-0.9-0.6-1.3-3.1-1.3-3.1c0.1,0.1,0.4,0.3,0.4,0.3c-0.1-0.4,0.3-1.3,0.3-1.3s0-0.3-0.1-0.9c-0.1-0.6-0.4-0.7-0.4-0.7
	c0.1-0.2,0.4-0.3,0.4-0.3c0.3-1.8,1.9-2.5,1.9-2.5c-0.1-0.4,0-0.7,0-0.7c-0.6,0-0.7,0.7-0.7,0.7c-0.1-0.3,0.3-0.8,0.3-0.8
	c-1.2-0.3-2.2,1-2.2,1c0.2-1.4,1.9-1.6,1.9-1.6c-0.4-0.5-1-0.5-1-0.5c-1-0.2-1.7,0.9-1.7,0.9c0.5-1.6,2-1.6,2-1.6
	c-1.7-1-3.5,0.2-3.5,0.2c1.7-1.7,3-1.2,3-1.2c-0.8-0.8-2.9-2-2.9-2c0.5,0,2.4,0.4,2.4,0.4c-0.2-0.2-0.9-0.8-0.9-0.8
	c-0.4-0.6-2-1.8-2-1.8c1.6,0.3,3.3,0.8,3.3,0.8c-1.1-0.9-1.9-3.6-1.9-3.6c0.3,0.3,0.9,0.7,0.9,0.7c1.1,0.5,2.2,1.4,2.2,1.4
	c-0.4-1.1,0-4.4,0-4.4s1.7,2.8,1.8,4c0,0,0.7-1.3,1.4-2.1c0,0,0.4-0.6,0.5-1c0,0,0.4,2.7-0.2,4c0,0,1.3-1.1,2.7-2.1
	c0,0-1,1.7-1.1,2.4c0,0-0.3,0.8-0.5,1c0,0,1.6-1.1,2.1-1.3c0,0-1.4,1.9-1.8,3c0,0,1-1,3.3-0.2c0,0-2.2-0.4-3.3,1.2
	c0,0,1.4-0.7,2.5,0.6c0,0-1-0.8-1.9-0.1c0,0-0.5,0.3-0.7,0.9c0,0,1.6-0.5,2.4,0.7c0,0-1.5-0.8-2.4,0c0,0,0.6,0.3,0.6,0.6
	c0,0-0.4-0.5-0.9-0.3c0,0,0.2,0.3,0.3,0.6c0,0,1.8-0.1,2.8,1.4c0,0,0.3,0,0.5,0.1c0,0-0.2,0.3-0.1,0.8c0.2,0.6,0.3,0.9,0.3,0.9
	s0.7,0.6,0.8,1c0,0,0.1-0.4,0.2-0.5c0,0,0.7,2.5,0.1,3.4c0,0,0.4,0.4,0.5,1L32,32.1z"/>
</svg>
