<?xml version="1.0" encoding="utf-8"?>
<!-- Generator: Adobe Illustrator 19.2.0, SVG Export Plug-In . SVG Version: 6.00 Build 0)  -->
<!DOCTYPE svg PUBLIC "-//W3C//DTD SVG 1.1//EN" "http://www.w3.org/Graphics/SVG/1.1/DTD/svg11.dtd">
<svg version="1.1" id="Layer_1" xmlns="http://www.w3.org/2000/svg" xmlns:xlink="http://www.w3.org/1999/xlink" x="0px" y="0px"
	 viewBox="0 0 50 50" style="enable-background:new 0 0 50 50;" xml:space="preserve">
<style type="text/css">
	.st0{fill:#AC1E29;}
	.st1{fill:#FFFFFF;}
</style>
<g>
	<circle class="st0" cx="25" cy="25" r="25"/>
	<path class="st1" d="M27.2,11.9c1,0.9,1.3,2.8,1.3,2.8c0.4,1.8-0.3,2.8-0.3,2.8c-0.9,0.9-0.5,1.3-0.5,1.3c0-0.8,0.9-1,0.9-1
		c0.4-0.1,0.3-0.4,0.3-0.4c-0.3-0.8,0.1-1.7,0.1-1.7c0.2-1.1-0.6-3.3-0.6-3.3c1.7-0.4,2.5,3,2.5,3c0.9,0.4,2.4-0.5,2.4-0.5
		c0.6-0.1,0.3,1.3,0.3,1.3c1.6-0.7,2.1-1.7,2.1-1.7c0-0.2,0.1-0.5,0.1-0.5c1.5,0.1-1.9,3.1-1.9,3.1c-1.2,0.6-1.5,1.9-1.5,1.9
		c0.5-0.7,3.3-1.7,3.3-1.7c0.6-0.5,0.7-0.3,0.7-0.3c-0.7,1.5-3.2,2.7-3.2,2.7c3.1,2,3.1,5.3,3.1,5.3c0.6,6.3-6.6,10.1-8.5,11.7
		c-1.8,1.6-3.6,2.5-5.5,2.8c-1.9,0.3-3-0.3-3.7-2.1c-0.8-1.7-5.3-7.8-5-13.7c0.3-5.8,5.9-7.2,5.9-7.2c-0.2-0.3-0.7-0.3-0.7-0.3
		c-0.4-0.4,0.6-0.9,0.6-0.9c-0.5-0.5-0.6-1.9-0.6-1.9c0.8-0.9,1.5-0.2,1.5-0.2c-0.7,0-0.5,0.5-0.5,0.5c1.2,0.9,1.7,1.8,1.7,1.8
		c-0.8-3.2,0.8-4.5,0.8-4.5c0.1,0.5,0.6,1,0.6,1c1,0.6,1.7,2.3,1.7,2.3c0.6-2.5,2.3-3.9,2.3-3.9C26.6,11.3,27.2,11.9,27.2,11.9z"/>
</g>
</svg>
