<?xml version="1.0" encoding="utf-8"?>
<!-- Generator: Adobe Illustrator 19.2.1, SVG Export Plug-In . SVG Version: 6.00 Build 0)  -->
<!DOCTYPE svg PUBLIC "-//W3C//DTD SVG 1.1//EN" "http://www.w3.org/Graphics/SVG/1.1/DTD/svg11.dtd">
<svg version="1.1" id="Layer_3" xmlns="http://www.w3.org/2000/svg" xmlns:xlink="http://www.w3.org/1999/xlink" x="0px" y="0px"
	 viewBox="0 0 50 50" style="enable-background:new 0 0 50 50;" xml:space="preserve">
<style type="text/css">
	.st0{fill:#FFFFFF;}
	.st1{fill:#AC1E29;}
</style>
<circle class="st0" cx="24.7" cy="24.7" r="22"/>
<path class="st1" d="M24.9,0.5c-13.6,0-24.6,11-24.6,24.6c0,13.6,11,24.6,24.6,24.6c13.6,0,24.6-11,24.6-24.6
	C49.5,11.5,38.5,0.5,24.9,0.5z M24.9,44.6c-10.8,0-19.6-8.8-19.6-19.6S14.1,5.5,24.9,5.5c10.8,0,19.6,8.8,19.6,19.6
	S35.7,44.6,24.9,44.6z M30.8,21.2C33,22.6,33,25,33,25c0.4,4.5-4.7,7.2-6.1,8.4c-1.3,1.2-2.6,1.8-4,2c-1.4,0.2-2.1-0.2-2.7-1.5
	c-0.5-1.2-3.8-5.6-3.6-9.8C17,20,21,19,21,19c-0.1-0.2-0.5-0.2-0.5-0.2c-0.3-0.3,0.5-0.6,0.5-0.6c-0.4-0.3-0.4-1.4-0.4-1.4
	c0.6-0.6,1-0.1,1-0.1c-0.5,0-0.3,0.4-0.3,0.4c0.8,0.6,1.2,1.3,1.2,1.3c-0.6-2.3,0.6-3.2,0.6-3.2c0.1,0.3,0.4,0.7,0.4,0.7
	c0.7,0.5,1.2,1.6,1.2,1.6c0.4-1.8,1.7-2.8,1.7-2.8c-0.2,0.5,0.1,1,0.1,1c0.7,0.6,0.9,2,0.9,2c0.3,1.3-0.2,2-0.2,2
	c-0.6,0.6-0.3,0.9-0.3,0.9c0-0.6,0.6-0.7,0.6-0.7c0.3-0.1,0.2-0.3,0.2-0.3c-0.2-0.6,0-1.2,0-1.2c0.1-0.8-0.5-2.3-0.5-2.3
	c1.2-0.3,1.8,2.1,1.8,2.1c0.6,0.3,1.7-0.4,1.7-0.4c0.4-0.1,0.2,0.9,0.2,0.9c1.1-0.5,1.5-1.2,1.5-1.2c0-0.2,0.1-0.4,0.1-0.4
	c1.1,0.1-1.3,2.2-1.3,2.2c-0.8,0.4-1,1.3-1,1.3c0.4-0.5,2.4-1.2,2.4-1.2c0.5-0.4,0.5-0.2,0.5-0.2C32.6,20.3,30.8,21.2,30.8,21.2z"/>
</svg>
