<svg id="Layer_1" xmlns="http://www.w3.org/2000/svg" viewBox="0 0 363 13.3"><style>.st0{fill-rule:evenodd;clip-rule:evenodd;fill:#FFFFFF;}</style><path class="st0" d="M0 13.3h363V6.6c-3.8-.4-6.9-2.2-6.9-2.2L351.2 3s-4.1 4.4-6.1 2.5c-2-1.9-5.7-3.8-5.7-3.8s-.8-2.4-2.8-1.4c-2 1-7.7 0-7.7 0s-.4 2.4-2.4 2.9-4.9 1.4-6.9 2.9c-2 1.4-6.1 1.4-6.5-.5-.4-1.9-1.6-5.3-4.1-2.9-2.5 2.3-5 3.3-7 2.3s-8.1-1.4-12.2-1c-4.1.5-7.7 1.9-11 1-3.3-1-2.8-1.4-10.2-1-7.3.5-8.9 1.4-15.9 1.9-6.9.5-8.1 1-11.8-.5-3.7-1.4-4.7-2.5-6-2-1.2.5-3.7 1.4-7.3.5-3.7-1-10.9-2.3-12.1-2.3-1.2 0-6.5-.5-8.5-.5s-10.6-1.9-13 1c-2.4 2.9-6.2 2.3-9.5 2.3s-5.3-1.4-8.1 0-9.8 1.4-9.8 1.4-6.5-3.4-8.9-3.4c-2.4 0-3.3-2.4-8.9-1C143.1 3 143.5 4 138.6 4c-4.9 0-9.8.5-12.2.5-2.4 0-8.5-1.4-13-1.4C108.9 3 99.9-.2 97 1.2c-2.8 1.4-5.7 2.9-7.7 2.4s-2.8 2.9-6.1 1.9-4.1-5.3-4.5-3.8c-.4 1.4-4.1 5.7-6.1 2.9-2-2.9-5.7-1-8.9-.5-3.3.5-11 1-11 2.9s-3.3 1-8.1-1c-4.9-1.9-8.5-2.9-9.8-1.9-1.2 1-6.1 3.4-10.6 1s-11 5.7-13.8 2.4C8.1 4.8 4.3 6.6 0 6.5v6.8z"/></svg>