<svg id="Layer_1" xmlns="http://www.w3.org/2000/svg" viewBox="0 0 363 13"><style>.st0{fill-rule:evenodd;clip-rule:evenodd;fill:#FFFFFF;}</style><path class="st0" d="M351.8 4.6l-8-1.4s-6.7 4.4-10 2.5c-3.3-1.9-9.4-3.8-9.4-3.8s-1.3-2.4-4.7-1.4c-3.3 1-12.7 0-12.7 0s-.7 2.4-4 2.9-8 1.4-11.4 2.9c-3.3 1.4-10 1.4-10.7-.5-.7-1.9-2.7-5.3-6.7-2.9s-8 3.4-11.4 2.4c-3.3-1-13.4-1.4-20.1-1-6.7.5-12.7 1.9-18.1 1-5.4-1-4.7-1.4-16.7-1-12 .5-14.7 1.4-26.1 1.9-11.4.5-13.4 1-19.4-.5-6-1.4-7.8-2.5-9.8-2-2 .5-6 1.4-12 .5-6-1-17.9-2.3-19.9-2.3s-10.7-.5-14-.5c-3.3 0-17.4-1.9-21.4 1S75.1 4.7 69.7 4.7s-8.7-1.4-13.4 0c-4.7 1.4-16.1 1.4-16.1 1.4s-9.7-1.4-13.7-1.4-5.4-2.4-14.7-1c-6.1.9-2.5 3-11.7 3v6.5h363V6.7c-6.2-.3-11.3-2.1-11.3-2.1z"/></svg>