<svg id="Layer_1" xmlns="http://www.w3.org/2000/svg" viewBox="0 0 18.7 1206"><style>.st0{fill:#FFFFFF;}</style><path class="st0" d="M11.7 6s-1.1 5.9-.4 6.9 3.3 4 2 6.1c-1.3 2-2.7 5.7-2.7 5.7s-1.7.8-1 2.8c.7 2 0 7.7 0 7.7S7 44.5 7.4 48.6c.3 4 .6 9.3 1 13.8C8.7 66.8 7 74.9 6 79.7c-1 4.9 3 13.8 3 19 0 5.3-3 8.9-1.7 15s0 11.3-1 17c-1 5.7-1.3 5.7-.7 9.7.7 4-.3 6.1-2.3 10.1-2 4-3.6 10.5-3.3 14.2.3 3.6 4 6.1 3 7.3-1 1.2 3.6 12.5 5.6 15.8 2 3.2 1.7 7.3 1 8.9-.7 1.6-1.3 7.3 0 8.1 1.3.8 2.6 8.9 2 10.5-.7 1.6-3 6.9-.7 13.3 2.3 6.5 1.3 23.5 2.6 29.1 1.3 5.7-1.3 10.9 1 13.8 2.3 2.8-3.3 9.3-1.7 13.8 1.7 4.4 0 9.3-.7 10.5-.7 1.2 0 4.9 1.3 9.7 1.3 4.9 2 8.1.7 8.1s-1.7 7.7-2 10.9c-.3 3.2-1.7 6.9.3 8.9s-1 5.7-2 6.1c-1 .4 2 1.2 2.7 4.4.7 3.2-1.7 4-1.3 6.1.3 2-.7 4.9-1.7 7.7s-2 11.7-2 16.2c0 4.4 1 10.5 1 12.9 0 2.4-.3 7.3-.3 12.1 0 4.9-.7 4.5-1.7 10.1-1 5.7.7 6.5.7 8.9 0 2.4 2.3 8.9 2.3 8.9s0 6.9-1 9.7c-1 2.8 0 4.9 0 8.1 0 3.2-2 6.1-4 8.5-2 2.4-.7 10.9-.7 12.9s.3 7.3.3 8.5c0 1.2 3.3 9.3 4 12.9.7 3.6 0 6.1-.3 7.3-.3 1.2 3.6 2.4 4.6 6.1 1 3.6.7 4.9.3 11.7-.3 6.9-1 8.5-1.3 15.8-.3 7.3 0 6.9.7 10.1.7 3.2-.3 6.9-.7 10.9-.3 4 0 10.1.7 12.1s0 4.5-1.7 6.9c-1.7 2.4.7 3.6 2 4 1.3.4 1.3 4.4.3 6.5-1 2-1.7 4.9-2 6.9-.3 2-2 2.4-2 2.4s.7 5.7 0 7.7 1 2.8 1 2.8 1.3 3.6 2.7 5.7c1.3 2-2 6.1-2 6.1l-2 4.8 1 5.1-2-.2s-1 9.3-.7 13.3c.3 4 .7 9.3 1 13.8.3 4.4-1.3 12.5-2.3 17.4-1 4.9 3 13.8 3 19 0 5.3-3 8.9-1.7 15s0 11.3-1 17c-1 5.7-1.3 5.7-.7 9.7.7 4 3.9 5.5 1.9 9.6-2 4-3.6 10.5-3.3 14.2.3 3.6 4 6.1 3 7.3-1 1.2-.6 13.1 1.4 16.3 2 3.2 1.7 7.3 1 8.9-.7 1.6-1.3 7.3 0 8.1 1.3.8 2.6 8.9 2 10.5-.7 1.6-3 6.9-.7 13.3 2.3 6.5 1.3 23.5 2.6 29.1 1.3 5.7-1.3 10.9 1 13.8 2.3 2.8-3.3 9.3-1.7 13.8 1.7 4.4 0 9.3-.7 10.5-.7 1.2 0 4.9 1.3 9.7 1.3 4.9 2 8.1.7 8.1s-1.7 7.7-2 10.9c-.3 3.2-1.7 6.9.3 8.9s-1 5.7-2 6.1c-1 .4 2 1.2 2.7 4.4.7 3.2-1.7 4-1.3 6.1.3 2-.7 4.9-1.7 7.7s1.3 11.9 1.3 16.3 1 10.5 1 12.9c0 2.4-.3 7.3-.3 12.1 0 4.9-.7 4.5-1.7 10.1-1 5.7.7 6.5.7 8.9 0 2.4 2.3 8.9 2.3 8.9s0 6.9-1 9.7c-1 2.8 0 4.9 0 8.1 0 3.2.4 7-1.6 9.4-2 2.4-.7 10.9-.7 12.9s.3 7.3.3 8.5c0 1.2.9 8.4 1.6 12 .7 3.6 0 6.1-.3 7.3-.3 1.2.4 2.3 1.4 5.9 1 3.6.7 4.9.3 11.7-.3 6.9-1 8.5-1.3 15.8-.3 7.3 0 6.9.7 10.1.7 3.2-.3 6.9-.7 10.9-.3 4 0 10.1.7 12.1s0 4.5-1.7 6.9c-1.7 2.4.7 3.6 2 4 1.3.4 1.3 4.4.3 6.5-1 2-1.7 4.9-2 6.9-.3 2-2 2.4-2 2.4s.7 5.7 0 7.7 1 2.8 1 2.8 1.3 3.6 2.7 5.7c1.3 2-2 6.1-2 6.1l-2.3 4.9 1.3 6.9h8.4V1h-8.4l.1 2.2L11.7 6z"/></svg>