<svg id="Layer_1" xmlns="http://www.w3.org/2000/svg" viewBox="0 0 363 13"><style>.st0{fill-rule:evenodd;clip-rule:evenodd;fill:#FFFFFF;}</style><path class="st0" d="M11.4 8.6l8 1.4s6.7-4.4 10-2.5c3.3 1.9 9.4 3.8 9.4 3.8s1.3 2.4 4.7 1.4c3.3-1 12.7 0 12.7 0s.7-2.4 4-2.9 8-1.4 11.4-2.9c3.3-1.4 10-1.4 10.7.5.7 2 2.7 5.4 6.7 3C93 8 97 7 100.4 8c3.3 1 13.4 1.4 20.1 1 6.7-.5 12.7-1.9 18.1-1 5.4 1 4.7 1.4 16.7 1 12-.5 14.7-1.4 26.1-1.9 11.4-.5 13.4-1 19.4.5 6 1.4 7.8 2.5 9.8 2 2-.5 6-1.4 12-.5 6 1 17.9 2.3 19.9 2.3s10.7.5 14 .5c3.3 0 17.4 1.9 21.4-1s10.2-2.3 15.6-2.3 8.7 1.4 13.4 0c4.7-1.4 16.1-1.4 16.1-1.4s9.7 1.4 13.7 1.4 5.4 2.4 14.7 1c6.1-.9 2.5-3 11.7-3V0H0v6.5c6.3.3 11.4 2.1 11.4 2.1z"/></svg>