<svg id="Layer_1" xmlns="http://www.w3.org/2000/svg" viewBox="0 0 1206 18.7"><style>.st0{fill:#F4F3F1;}</style><path class="st0" d="M5 6.9s5.9 1.1 6.9.4 4-3.3 6.1-2C20 6.7 23.7 8 23.7 8s.8 1.7 2.8 1c2-.7 7.7 0 7.7 0s9.3 2.6 13.4 2.3c4-.3 9.3-.6 13.8-1 4.4-.3 12.5 1.3 17.4 2.3 4.9 1 13.8-3 19-3 5.3 0 8.9 3 15 1.7s11.3 0 17 1c5.7 1 5.7 1.3 9.7.7 4-.7 6.1.3 10.1 2.3 4 2 10.5 3.6 14.2 3.3 3.6-.3 6.1-4 7.3-3 1.2 1 12.5-3.6 15.8-5.6 3.2-2 7.3-1.7 8.9-1 1.6.7 7.3 1.3 8.1 0 .8-1.3 8.9-2.6 10.5-2 1.6.7 6.9 3 13.3.7 6.3-2.3 23.3-1.3 29-2.7 5.7-1.3 10.9 1.3 13.8-1 2.8-2.3 9.3 3.3 13.8 1.7 4.4-1.7 9.3 0 10.5.7 1.2.7 4.9 0 9.7-1.3 4.9-1.3 8.1-2 8.1-.7s7.7 1.7 10.9 2c3.2.3 6.9 1.7 8.9-.3s5.7 1 6.1 2c.4 1 1.2-2 4.4-2.7 3.2-.7 4 1.7 6.1 1.3 2-.3 4.9.7 7.7 1.7s11.7 2 16.2 2c4.4 0 10.5-1 12.9-1 2.4 0 7.3.3 12.1.3 4.9 0 4.5.7 10.1 1.7 5.7 1 6.5-.7 8.9-.7 2.4 0 8.9-2.3 8.9-2.3s6.9 0 9.7 1c2.8 1 4.9 0 8.1 0 3.2 0 6.1 2 8.5 4 2.4 2 10.9.7 12.9.7s7.3-.3 8.5-.3c1.2 0 9.3-3.3 12.9-4 3.6-.7 6.1 0 7.3.3 1.2.3 2.4-3.6 6.1-4.6 3.6-1 4.9-.7 11.7-.3 6.9.3 8.5 1 15.8 1.3 7.3.3 6.9 0 10.1-.7 3.2-.7 6.9.3 10.9.7 4 .3 10.1 0 12.1-.7s4.5 0 6.9 1.7c2.4 1.7 3.6-.7 4-2 .4-1.3 4.4-1.3 6.5-.3 2 1 4.9 1.7 6.9 2 2 .3 2.4 2 2.4 2s5.7-.7 7.7 0 2.8-1 2.8-1 3.6-1.3 5.7-2.7c2-1.3 6.1 2 6.1 2l4.9 2.3 5.1-1-.2 2s9.3 1 13.3.7c4-.3 9.3-.7 13.8-1 4.4-.3 12.5 1.3 17.4 2.3 4.9 1 13.8-3 19-3 5.3 0 8.9 3 15 1.7s11.3 0 17 1c5.7 1 5.7 1.3 9.7.7 4-.7 5.5-3.9 9.6-1.9 4 2 10.5 3.6 14.2 3.3 3.6-.3 6.1-4 7.3-3 1.2 1 13.1.6 16.3-1.4 3.2-2 7.3-1.7 8.9-1 1.6.7 7.3 1.3 8.1 0 .8-1.3 8.9-2.6 10.5-2 1.6.7 6.9 3 13.3.7 6.5-2.3 23.5-1.3 29.1-2.6 5.7-1.3 10.9 1.3 13.8-1 2.8-2.3 9.3 3.3 13.8 1.7 4.4-1.7 9.3 0 10.5.7 1.2.7 4.9 0 9.7-1.3 4.9-1.3 8.1-2 8.1-.7s7.7 1.7 10.9 2c3.2.3 6.9 1.7 8.9-.3s5.7 1 6.1 2c.4 1 1.2-2 4.4-2.7 3.2-.7 4 1.7 6.1 1.3 2-.3 4.9.7 7.7 1.7s11.9-1.3 16.3-1.3 10.5-1 12.9-1c2.4 0 7.3.3 12.1.3 4.9 0 4.5.7 10.1 1.7 5.7 1 6.5-.7 8.9-.7 2.4 0 8.9-2.3 8.9-2.3s6.9 0 9.7 1c2.8 1 4.9 0 8.1 0 3.2 0 7-.4 9.4 1.6 2.4 2 10.9.7 12.9.7s7.3-.3 8.5-.3c1.2 0 8.4-.9 12-1.6 3.6-.7 6.1 0 7.3.3 1.2.3 2.3-.4 5.9-1.4 3.6-1 4.9-.7 11.7-.3 6.9.3 8.5 1 15.8 1.3 7.3.3 6.9 0 10.1-.7 3.2-.7 6.9.3 10.9.7 4 .3 10.1 0 12.1-.7s4.5 0 6.9 1.7c2.4 1.7 3.6-.7 4-2 .4-1.3 4.4-1.3 6.5-.3 2 1 4.9 1.7 6.9 2 2 .3 2.4 2 2.4 2s5.7-.7 7.7 0 2.8-1 2.8-1 3.6-1.3 5.7-2.7c2-1.3 6.1 2 6.1 2l4.9 2.3 6.9-1.3V0H0v8.4l2.2-.1L5 6.9z"/></svg>