<svg id="Layer_1" xmlns="http://www.w3.org/2000/svg" viewBox="0 0 1206 18.7"><style>.st0{fill:#ede9e6;}</style><path class="st0" d="M1203.4 11.5c-1 0.7-4.1 3.3-6.2 2 -2-1.3-5.8-2.7-5.8-2.7s-0.8-1.7-2.8-1 -7.8 0-7.8 0 -9.4-2.6-13.6-2.3c-4.1 0.3-9.4 0.6-14 1 -4.5 0.3-12.7-1.3-17.6-2.3 -5-1-14 3-19.3 3 -5.4 0-9-3-15.2-1.7 -6.2 1.3-11.5 0-17.2-1 -5.8-1-5.8-1.3-9.8-0.7 -4.1 0.7-6.2-0.3-10.2-2.3 -4.1-2-10.6-3.7-14.4-3.3 -3.7 0.3-6.2 4.1-7.4 3 -1.2-1-12.7 3.7-16 5.7 -3.2 2-7.4 1.7-9 1 -1.6-0.7-7.4-1.3-8.2 0 -0.8 1.3-9 2.6-10.6 2 -1.6-0.7-7-3-13.5-0.7 -6.6 2.3-23.8 1.3-29.5 2.6 -5.8 1.3-11.1-1.3-14 1 -2.8 2.3-9.4-3.3-14-1.7 -4.5 1.7-9.4 0-10.6-0.7 -1.2-0.7-5 0-9.8 1.3 -5 1.3-8.2 2-8.2 0.7s-7.8-1.7-11.1-2c-3.2-0.3-7-1.7-9 0.3s-5.8-1-6.2-2c-0.4-1-1.2 2-4.5 2.7s-4.1-1.7-6.2-1.3c-2 0.3-5-0.7-7.8-1.7 -2.8-1-11.9-2-16.4-2 -4.5 0-10.6 1-13.1 1 -2.4 0-7.4-0.3-12.3-0.3 -5 0-4.6-0.7-10.2-1.7 -5.8-1-6.6 0.7-9 0.7 -2.4 0-9 2.3-9 2.3s-7 0-9.8-1c-2.8-1-5 0-8.2 0 -3.2 0-6.2-2-8.6-4.1 -2.4-2-11.1-0.7-13.1-0.7 -2 0-7.4 0.3-8.6 0.3 -1.2 0-9.4 3.3-13.1 4.1 -3.7 0.7-6.2 0-7.4-0.3 -1.2-0.3-2.4 3.7-6.2 4.7 -3.7 1-5 0.7-11.9 0.3 -7-0.3-8.6-1-16-1.3 -7.4-0.3-7 0-10.2 0.7 -3.2 0.7-7-0.3-11.1-0.7 -4.1-0.3-10.2 0-12.3 0.7s-4.6 0-7-1.7c-2.4-1.7-3.7 0.7-4.1 2 -0.4 1.3-4.5 1.3-6.6 0.3 -2-1-5-1.7-7-2 -2-0.3-2.4-2-2.4-2s-5.8 0.7-7.8 0c-2-0.7-2.8 1-2.8 1s-3.7 1.3-5.8 2.7c-2 1.3-6.2-2-6.2-2l-4.8-2 -5.2 1 0.2-2c0 0-9.4-1-13.5-0.7 -4.1 0.3-9.4 0.7-14 1 -4.5 0.4-12.7-1.3-17.6-2.3 -5-1-14 3-19.3 3 -5.4 0-9-3-15.2-1.7 -6.2 1.3-11.5 0-17.2-1 -5.8-1-5.8-1.3-9.8-0.7 -4.1 0.7-5.6 4-9.7 1.9 -4.1-2-10.6-3.7-14.4-3.3 -3.7 0.3-6.2 4.1-7.4 3 -1.2-1-13.3-0.6-16.5 1.4 -3.2 2-7.4 1.7-9 1 -1.6-0.7-7.4-1.3-8.2 0s-9 2.6-10.6 2c-1.6-0.7-7-3-13.5-0.7 -6.6 2.3-23.8 1.3-29.5 2.6 -5.8 1.3-11.1-1.3-14 1 -2.8 2.3-9.4-3.3-14-1.7 -4.5 1.7-9.4 0-10.6-0.7 -1.2-0.7-5 0-9.8 1.3 -5 1.3-8.2 2-8.2 0.7s-7.8-1.7-11.1-2c-3.2-0.3-7-1.7-9 0.3 -2 2-5.8-1-6.2-2 -0.4-1-1.2 2-4.5 2.7s-4.1-1.7-6.2-1.3c-2 0.3-5-0.7-7.8-1.7 -2.8-1-12.1 1.3-16.5 1.3 -4.5 0-10.6 1-13.1 1s-7.4-0.3-12.3-0.3c-5 0-4.6-0.7-10.2-1.7 -5.8-1-6.6 0.7-9 0.7s-9 2.3-9 2.3 -7 0-9.8-1c-2.8-1-5 0-8.2 0 -3.2 0-7.1 0.4-9.5-1.6 -2.4-2-11.1-0.7-13.1-0.7s-7.4 0.3-8.6 0.3c-1.2 0-8.5 0.9-12.2 1.6 -3.7 0.7-6.2 0-7.4-0.3 -1.2-0.3-2.3 0.4-6 1.4 -3.7 1-5 0.7-11.9 0.3 -7-0.3-8.6-1-16-1.3 -7.4-0.3-7 0-10.2 0.7 -3.2 0.7-7-0.3-11.1-0.7 -4.1-0.3-10.2 0-12.3 0.7s-4.6 0-7-1.7 -3.7 0.7-4.1 2 -4.5 1.3-6.6 0.3c-2-1-5-1.7-7-2 -2-0.3-2.4-2-2.4-2s-5.8 0.7-7.8 0 -2.8 1-2.8 1 -3.7 1.3-5.8 2.7c-2 1.3-6.2-2-6.2-2L0 10.5V19h1206v-8.5C1204.8 10.4 1203.8 11.3 1203.4 11.5z"/></svg>