<svg xmlns="http://www.w3.org/2000/svg" preserveAspectRatio="xMidYMid" width="46" height="2" viewBox="0 0 46 2"><defs><style>.cls-1 { fill: #b2afab; fill-rule: evenodd; }</style></defs><path d="M11.025.19c-.037.026-.054.06-.054.1-.29-.092-.814-.127-1.574-.107-.76.02-1.467.02-2.12 0 .146.03.29.046.436.046.144 0 .217.02.217.06 0 .03.016.05.053.06.036.01.055.032.055.062 0 .01-.055.033-.163.07-.11.035-.128.11-.055.22.072-.01.11-.02.11-.03 0-.01.035-.015.108-.015v.06c-.146.022-.272.052-.38.093-.11.04-.2.07-.272.092-.073-.04-.055-.087.054-.138.11-.05.017-.076-.27-.076h-.22V.48c0-.106-.036-.195-.107-.267.07.01.125.016.163.016h-.272c-.217 0-.272-.01-.163-.024C6.68.19 6.59.183 6.3.183H5.212c.07.05.017.102-.163.153-.182.05-.345.086-.49.107-.072-.02-.036-.028.11-.023.144.005.217-.008.217-.038s.017-.064.054-.1c.037-.035-.017-.07-.162-.1H3.8c-.363.052-.597.082-.706.093-.108.01-.27.04-.488.092C2.46.337 2.316.33 2.17.35c.218.042.254.072.11.093-.146-.03-.364-.026-.652.015 0 .03.035.054.108.07.072.014.036.032-.108.052-.073 0-.163-.005-.272-.014-.11-.01-.236-.02-.38-.03C.976.513.903.503.76.503H.54L.38.55C.34.56.25.575.108.596v.32C.107.95.16.964.27.964c.108 0 .163.015.163.046 0 .03-.038.077-.11.144-.072.067-.18.125-.325.176l.217-.03c.29.1.707.178 1.25.23.543.05 1.103.106 1.684.167-.147-.02-.256-.033-.327-.038-.073-.006-.146-.014-.217-.024.144-.04.27-.07.38-.085.108-.013.234-.042.38-.082.07.02.144.043.217.07.072.024.11.052.11.083 0 .04-.074.05-.218.024-.146-.026-.218-.023-.218.007v.108c.29.02.506.038.652.054.144.015.288.028.434.038-.073-.02-.11-.033-.11-.038 0-.005.11-.008.327-.008.218 0 .327.005.327.015v.014c.144 0 .253-.032.326-.1.07-.065.18-.13.326-.19.07.02.125.033.162.038.036.006.054.023.054.054 0 .05-.037.097-.11.137-.072.04-.29.087-.65.138h.923c.325 0 1.03.01 2.118.032 0-.07.18-.117.543-.138v.092l-.325.046c.29 0 .723.002 1.304.007.578.005 1.194.012 1.846.022.65.01 1.25.018 1.792.024l.924.007c.288 0 .45-.005.49-.015l.162-.046c.144.04.36.06.65.06.146-.02.22-.043.22-.068 0-.025.034-.048.107-.07.29.022.382.045.273.07-.11.025-.163.048-.163.07h1.847c.07-.022.09-.037.054-.047-.036-.01-.017-.025.056-.046.144.022.505.034 1.086.04.58.005 1.23.005 1.956 0 .723-.006 1.393-.016 2.01-.03.614-.017.994-.034 1.14-.055.072-.03.09-.053.055-.07-.038-.014.017-.03.162-.052.145.02.218.043.218.07 0 .024.07.052.217.083l1.9-.008c1.123-.005 2.427-.007 3.913-.007h4.617c1.592 0 2.97.006 4.128.016 0-.03.036-.056.11-.077.505.05 1.248.076 2.226.076h2.336c.796 0 1.32-.07 1.575-.207.253-.14.416-.3.49-.482.07-.184.053-.362-.055-.536-.11-.173-.163-.295-.163-.367 0-.173-.127-.268-.38-.282-.255-.016-.67-.024-1.25-.024l-.815.007c-.47.005-.96.013-1.466.023-.508.01-.978.023-1.413.038-.434.016-.69.028-.76.04 0-.012-.02-.017-.054-.017-.04 0-.056-.004-.056-.014V.06c0-.01-.108-.023-.326-.037C39 .007 38.784 0 38.566 0c-.363 0-.58.005-.65.015-.074.01-.147.015-.22.015 0 .05-.036.086-.107.107-.074-.02-.11-.056-.11-.107-.508-.01-1.412-.013-2.716-.007l-4.13.014c-1.448.006-2.788.01-4.018.016-1.233.005-2.03.008-2.39.008.144.03.163.077.054.138-.11.06-.236.102-.38.122V.29c0-.01-.038-.015-.11-.015-.072.02-.108.033-.108.038 0 .005-.037.018-.108.038V.108l.217.06c.072-.02.145-.037.218-.053.072-.015.072-.033 0-.053l-5.65.123c0 .02-.037.033-.108.038-.073.006-.146.02-.217.04-.073-.02-.127-.034-.163-.04-.037-.004-.127-.017-.272-.037 0 .02.036.038.11.053.07.016 0 .023-.218.023s-.454-.008-.707-.024L15.86.183c-.217.08-.526.117-.923.107-.4-.01-.527-.01-.38 0 .07.02.18.046.325.077.144.03.29.066.435.106l-.543-.076c0 .02.016.033.054.038.036.006-.054.008-.272.008-.217 0-.326-.01-.326-.03v-.07c0-.025-.037-.053-.108-.084-.073-.03-.29-.057-.652-.077-.073.02-.11.033-.11.038 0 .006-.036.02-.107.04-.073-.02-.073-.04 0-.054.07-.015 0-.023-.218-.023-.29 0-.49.005-.597.015-.11.01-.236.015-.38.015 0 .02.054.034.162.04.11.004.163.027.163.067 0 .03-.054.04-.163.03-.108-.01-.236-.004-.38.017-.146-.02-.236-.036-.27-.047-.04-.01-.056-.035-.056-.076 0-.01.017-.015.055-.015.034 0 .053-.006.053-.017V.198v.015l.108.03c-.144-.08-.362-.12-.65-.12 0 .02-.02.042-.055.068zm13.96 1.644c-.072-.01-.09-.027-.053-.053.035-.024.125-.037.27-.037.073.03 0 .06-.216.09zm.87-.03c0-.07.18-.097.543-.077 0 .02-.18.046-.543.077zm-9.18.107c-.11.022-.236.032-.38.032 0-.02.054-.044.163-.07.108-.024.234-.032.38-.022 0 .02-.055.04-.163.06zm-9.18-.03h-.76c.143-.01.325-.017.542-.023.218-.004.29.003.218.024zm20.316-.145c-.072.026-.145.054-.217.084 0-.05-.073-.093-.217-.123l.11-.015c.07-.01.216-.016.433-.016 0 .02-.038.044-.11.07zm-21.51.16c-.147-.05 0-.096.434-.137 0 .072-.146.117-.435.138zm18.686-.152c-.073-.02-.092-.048-.054-.084.035-.037.125-.05.27-.04.146.04.073.082-.216.123zm16.84-.183l.434.03-.434.03c-.146.01-.29.01-.435 0l.436-.06zm-25.966.26l-.11-.016c-.072-.01-.107-.02-.107-.03 0-.01-.038-.02-.11-.03.145-.01.273-.02.38-.024.11-.005.236-.008.382-.008-.218.052-.364.087-.435.107zm-5.65-.03h-.217c-.146 0-.217-.017-.217-.047 0 .04.07.053.217.038.145-.014.218-.01.218.01zm4.02-.078c.145.02.18.036.11.046-.147 0-.256-.012-.327-.038-.073-.025-.037-.038.11-.038 0 .01.034.02.107.03zm-.76-.06l.11.014.216.06-.11.017c-.072.01-.216.015-.433.015.144-.03.217-.066.217-.107zm-5.16.06c-.038.01.016.026.162.046-.146 0-.29.015-.434.046-.073-.02-.073-.04 0-.06.07-.02.144-.047.217-.078.07.02.09.036.054.046zm-4.4-.046c.505-.02.687 0 .542.06l-.543-.06zm20.533 0c-.146-.05-.073-.106.217-.168 0 .05-.073.107-.217.168zm-6.845-.06v.228c-.073 0-.108-.004-.108-.015 0-.01-.038-.02-.11-.03-.072 0-.108.004-.108.014s-.037.02-.108.03c-.073-.05.07-.127.434-.23zM4.67 1.62c-.146 0-.31-.002-.49-.007s-.27-.018-.27-.038c.505 0 .76.015.76.046zm36.667-.19c-.11.015-.127.002-.054-.04l.108.016c.072.01.11.03.11.062 0-.04-.054-.054-.163-.04zm-25.368.16h.216c.144 0 .217-.01.217-.03.218.05.07.06-.434.03zm-9.345-.092c.218.05.218.092 0 .123V1.5zM41.39 1.39l.11-.014c.07-.01.108-.026.108-.046.145.04.072.06-.217.06zm-30.42.032v.107c-.145-.022-.216-.047-.216-.078 0-.03.07-.04.217-.03zm4.78.107c0-.022-.017-.044-.053-.07-.037-.025.017-.048.163-.07.144.073.11.118-.11.14zm9.236-.185c-.073-.092.07-.137.435-.137 0 .05-.145.097-.434.137zM39.49 1.2c-.11.026-.31.044-.598.053 0-.02.072-.038.218-.053.144-.015.288-.038.434-.07.072.022.055.044-.054.07zm1.032-.07v.062c.07-.02.07-.056 0-.107v.046zM.867 1.254c0 .01-.037.026-.108.047 0-.02.016-.044.053-.07.036-.024.126-.033.272-.022-.146.02-.218.036-.218.045zm30.203-.107v.107c-.146-.02-.217-.043-.217-.068 0-.026.07-.04.217-.04zm2.173-.076l.11.015c.143.02.18.04.107.06 0-.01-.037-.02-.108-.03-.073-.01-.11-.024-.11-.045zm-1.52.076c-.074-.02-.183-.035-.327-.045.435 0 .652.026.652.077-.146 0-.255-.01-.326-.03zm-.87-.045h-.11c-.072 0-.108-.01-.108-.03l.218.03zM.703 1.086c-.107.01-.235.016-.38.016.145.02.308.026.49.016.18-.01.272-.025.272-.046-.146 0-.272.005-.38.015zM32.646.94c-.108.025-.236.038-.38.038.144-.02.217-.038.217-.053 0-.016.072-.033.218-.054.07.022.054.045-.055.07zM44.053.726c-.11.015-.236.013-.38-.008 0 .01.035.02.108.03.073-.01.127-.025.164-.045.036-.02.126-.03.272-.03 0 .02-.054.038-.163.053zM24.77.65c.07.025.034.053-.11.083-.146-.02-.2-.043-.163-.068.036-.026.054-.054.054-.085.073.02.146.044.22.07zM37.914.565c0-.02.07-.034.217-.04.144-.004.253-.012.326-.022 0 .04-.182.062-.543.062zM16.73.75c0-.042.07-.072.216-.093.218.03.145.06-.217.092zM14.34.64V.75c-.147-.022-.218-.045-.218-.07 0-.025.07-.038.217-.038zm-2.283.06V.78.656v.046zm11.734 0V.49c.072-.01.11-.006.11.014s.017.043.054.07c.036.025-.02.068-.163.13zM14.666.69c-.073-.02-.073-.044 0-.07.07-.024.18-.038.326-.038 0 .052-.108.087-.325.108zM1.845.58v.108c-.29-.02-.4-.044-.326-.07.07-.024.18-.038.325-.038zM42.478.382v.03c0 .01-.11.026-.326.046 0-.05.108-.076.326-.076zM.813.604C.776.63.686.647.54.657c0-.02.037-.04.11-.06C.72.574.76.56.76.55c.07.01.09.028.053.054zM4.67.62c0 .035-.038.073-.11.113V.627c0-.04-.072-.052-.216-.03-.146.02-.29.02-.435 0 .434-.022.722-.047.868-.078-.073.03-.108.063-.108.1zM24.008.35l.11.017c.07.01.125.015.162.015.036 0 .09.005.163.015-.218.01-.345.018-.38.023-.038.005-.128.008-.272.008.072 0 .11-.006.11-.016s.017-.02.054-.03c.036-.01.054-.02.054-.03zM41.283.276c.144.02.144.056 0 .107V.275zm-28.03.153l.543.045c-.363 0-.543-.015-.543-.045zM5.54.412c.143.04.07.06-.218.06l.217-.06zm6.3.092c-.146-.06-.073-.107.217-.137.145.05.072.096-.217.137zM6.734.474c-.217 0-.4.015-.543.045l-.434.09c.144-.11.47-.193.978-.243v.106zM6.19.35v.032c0 .01-.108.025-.325.046v-.03c0-.03.108-.047.326-.047zM39.763.276c.144 0 .252-.01.325-.03.072-.02.218-.036.435-.047V.32c-.073 0-.11-.004-.11-.015 0-.02-.036-.03-.107-.03-.073.01-.11.036-.11.076-.145-.02-.235-.02-.27 0-.038.022-.163.032-.38.032-.218 0-.29-.005-.218-.015.07-.01.07-.026 0-.047-.073.02-.163.038-.272.054-.108.015-.236.013-.38-.007.144-.03.307-.064.49-.1.18-.036.38-.064.597-.084-.074.03-.074.06 0 .092zM38.24.183c.145.02.29.036.435.046l-.11.014c-.145.02-.253.03-.325.03v-.09zm-.977.122c-.073-.02-.11-.043-.11-.07 0-.024-.036-.052-.108-.083.29.04.362.092.218.153zM8.907.335v-.03c0-.02-.037-.03-.11-.03.145-.01.254-.013.327-.008.07.006.144-.003.217-.023.146.04 0 .072-.433.092zm-2.39-.06c.07.02.07.04 0 .06-.073-.01-.29-.03-.652-.06.144-.02.234-.036.27-.046.037-.01.127-.017.273-.017 0 .02.036.04.11.062z" class="cls-1"/></svg>